<?xml version="1.0" standalone="no"?>
<!DOCTYPE svg PUBLIC "-//W3C//DTD SVG 20010904//EN"
 "http://www.w3.org/TR/2001/REC-SVG-20010904/DTD/svg10.dtd">
<svg version="1.0" xmlns="http://www.w3.org/2000/svg"
 width="597.000000pt" height="800.000000pt" viewBox="0 0 597.000000 800.000000"
 preserveAspectRatio="xMidYMid meet">

<g transform="translate(0.000000,800.000000) scale(0.100000,-0.100000)"
fill="#000000" stroke="none">
<path d="M550 7995 c0 -3 9 -18 20 -33 29 -39 60 -138 67 -210 l6 -63 -40 -42
c-70 -72 -99 -153 -107 -302 -3 -38 -5 -74 -5 -79 -1 -5 -9 -2 -20 8 -14 13
-19 37 -24 114 -7 100 -10 120 -29 209 l-11 51 36 32 c38 33 52 66 61 145 7
70 -11 116 -49 127 -40 12 -267 -19 -324 -43 l-44 -19 7 -54 c13 -116 46 -162
123 -175 44 -8 44 -10 24 -146 -7 -44 -15 -95 -17 -112 -4 -24 -13 -37 -34
-48 -75 -39 -195 -184 -188 -227 3 -19 7 -15 28 26 49 97 138 177 210 190 49
8 149 -19 182 -51 72 -69 120 -232 133 -458 l7 -110 -32 -19 c-18 -10 -64 -45
-102 -78 -85 -74 -102 -73 -106 4 -3 53 -1 58 32 89 48 46 54 78 23 115 -22
25 -32 29 -76 28 -67 -1 -105 -27 -109 -76 -2 -29 2 -40 24 -57 15 -11 33 -21
42 -21 12 0 14 -11 10 -57 -6 -71 -40 -107 -95 -101 -32 4 -34 3 -28 -21 8
-34 47 -92 85 -128 l31 -29 -17 -79 c-9 -44 -19 -95 -21 -113 l-5 -33 -34 21
c-19 11 -68 28 -109 39 -71 18 -75 18 -75 1 0 -13 11 -19 49 -23 66 -8 181
-67 264 -136 38 -31 84 -68 104 -83 l36 -28 33 29 c18 16 42 32 53 36 28 9 72
-14 90 -47 14 -25 14 -38 -7 -145 -72 -366 -90 -424 -199 -638 -39 -77 -138
-214 -160 -222 -8 -3 -24 4 -36 15 -39 36 -91 55 -159 60 -62 4 -68 3 -68 -14
0 -17 8 -19 63 -19 216 -2 318 -260 242 -613 -54 -244 -67 -308 -71 -330 l-5
-23 -42 25 c-40 23 -154 66 -177 66 -5 0 -10 -6 -10 -14 0 -8 31 -25 76 -40
123 -44 229 -121 298 -215 51 -70 124 -239 153 -353 39 -156 34 -351 -10 -412
-12 -17 -16 -16 -66 16 -45 27 -65 33 -125 36 -62 3 -84 -1 -171 -33 -95 -34
-101 -35 -112 -18 -7 10 -19 27 -27 38 -15 19 -15 19 -16 -9 0 -16 7 -38 17
-48 15 -17 15 -19 0 -36 -10 -10 -17 -29 -17 -42 0 -24 0 -24 33 6 77 73 204
119 297 109 169 -20 264 -144 262 -344 -2 -130 -47 -191 -177 -241 -42 -16
-64 -48 -65 -90 0 -37 -10 -46 -67 -59 -55 -14 -104 -8 -140 15 -18 11 -23 24
-23 57 0 34 -7 50 -31 76 -17 19 -43 52 -57 75 -27 40 -27 40 -30 13 -3 -20 8
-41 41 -80 l44 -52 6 -162 c6 -177 8 -171 -55 -194 -26 -9 -38 -19 -38 -32 0
-15 5 -18 22 -12 144 44 221 44 320 -4 82 -39 135 -97 244 -268 128 -201 144
-234 144 -307 0 -74 -12 -95 -106 -192 -182 -187 -402 -266 -562 -201 l-62 25
0 -23 c0 -51 212 -74 324 -35 93 32 250 130 295 184 7 9 17 16 21 16 8 0 136
-171 210 -279 l43 -62 -6 -97 c-4 -53 -2 -149 3 -212 6 -63 14 -214 19 -335
11 -242 16 -285 38 -285 12 0 14 10 9 52 -3 29 -10 149 -15 267 -6 118 -12
231 -16 250 -19 120 -3 480 25 530 27 50 79 76 225 112 151 38 495 38 708 0
121 -21 179 -124 206 -371 10 -91 -2 -792 -14 -822 -5 -12 -2 -18 8 -18 20 0
27 49 28 215 0 77 4 151 8 164 6 23 7 23 33 -16 15 -22 54 -67 87 -101 72 -71
111 -146 111 -214 0 -38 4 -48 16 -48 14 0 16 9 12 65 -3 36 -13 77 -23 91
-19 29 -9 48 21 42 14 -2 20 -15 24 -48 12 -99 32 -111 172 -111 188 0 238 25
238 115 0 34 21 63 38 52 5 -3 4 -32 -2 -68 -15 -89 -10 -138 15 -138 17 0 19
8 19 85 0 108 16 141 114 239 79 79 146 187 146 235 0 50 -30 164 -56 210 -13
24 -24 47 -24 52 0 5 15 9 34 9 65 0 156 51 182 101 10 19 27 32 54 39 50 13
80 51 80 101 0 21 -4 41 -10 44 -6 4 -10 -9 -10 -33 0 -54 -33 -83 -100 -90
-49 -4 -52 -3 -90 38 l-40 43 0 -36 c0 -69 -74 -114 -142 -88 -32 12 -68 65
-68 98 0 20 -5 17 -41 -22 -35 -38 -47 -45 -80 -45 -53 0 -77 34 -61 88 16 52
7 51 -13 -2 -10 -25 -15 -52 -12 -61 5 -11 0 -15 -16 -15 -46 0 -52 13 -55
122 -3 85 0 111 16 149 27 63 107 142 162 161 42 14 45 17 42 49 -4 54 -43
169 -57 169 -20 0 -65 40 -65 59 0 42 65 79 116 67 46 -12 68 -105 28 -120
-12 -4 -14 -14 -9 -37 9 -39 54 -139 63 -139 4 1 36 7 72 15 77 17 144 19 170
5 10 -5 25 -7 34 -4 16 6 96 155 96 178 0 8 -11 21 -25 30 -14 9 -33 32 -42
51 -15 31 -15 36 1 59 31 47 107 47 165 -2 63 -53 50 -152 -20 -152 -24 0 -34
-9 -59 -52 -17 -29 -35 -70 -42 -90 -11 -37 -11 -37 44 -87 125 -114 186 -323
158 -542 -11 -94 -31 -204 -49 -269 -18 -65 -34 -261 -28 -333 13 -141 65
-277 107 -277 18 0 18 4 -10 58 -16 31 -37 92 -46 134 l-17 77 47 43 c40 37
50 54 67 113 23 85 25 202 4 305 -8 41 -18 134 -22 205 l-6 131 64 32 c35 17
80 38 99 46 19 8 50 24 68 36 l32 22 0 -26 c0 -79 60 -136 144 -136 l49 0 -26
-26 c-14 -14 -31 -41 -38 -61 -15 -47 9 -110 62 -157 35 -33 45 -36 98 -36 48
0 63 4 85 25 52 48 71 137 42 194 -20 38 -85 81 -125 81 l-32 0 24 33 c14 17
31 51 39 75 13 39 16 42 29 26 8 -9 32 -25 54 -35 113 -52 217 12 202 123 -11
84 -97 157 -171 145 l-32 -5 4 52 c5 62 -13 104 -58 136 -25 18 -42 21 -90 18
-58 -3 -61 -2 -75 26 -8 15 -15 30 -15 33 0 3 53 3 118 1 111 -3 120 -5 180
-38 59 -31 172 -139 172 -163 0 -5 8 -21 19 -35 69 -98 88 -345 50 -653 -15
-120 -24 -245 -24 -329 1 -158 18 -227 92 -377 l45 -93 48 0 47 0 13 45 c17
61 8 176 -19 248 -30 76 -87 147 -145 177 -46 25 -46 25 -46 78 0 29 7 115 16
190 10 77 17 219 18 324 1 104 3 187 6 185 3 -1 26 -13 52 -26 54 -28 69 -70
36 -103 -16 -16 -18 -31 -16 -106 3 -87 3 -87 31 -90 32 -4 33 -9 6 -38 -25
-26 -38 -78 -31 -123 4 -31 53 -94 81 -102 13 -5 56 -177 71 -289 6 -44 61
-305 76 -357 2 -7 9 -13 15 -13 17 0 7 61 -45 268 -24 97 -47 197 -51 222 -3
25 -20 116 -36 204 -38 206 -38 199 6 180 43 -18 59 -18 124 2 67 19 126 72
134 118 7 44 -8 108 -36 151 -30 47 -77 68 -139 63 l-49 -5 43 45 c156 161
327 192 506 90 78 -45 159 -125 144 -140 -6 -6 -30 1 -60 17 -40 21 -60 25
-95 22 -82 -9 -126 -43 -152 -116 -49 -139 43 -271 188 -271 35 0 51 7 85 36
24 20 49 51 57 70 9 22 21 34 33 34 16 0 22 -15 38 -87 15 -72 18 -126 16
-301 0 -117 -6 -239 -11 -270 -6 -31 -15 -100 -22 -152 -6 -51 -18 -112 -25
-133 -17 -49 -18 -47 4 -47 25 0 37 42 56 195 38 302 44 553 17 719 -10 58 -9
72 3 85 10 11 12 22 6 31 -5 7 -14 51 -20 97 -12 80 -13 83 -39 83 -19 0 -38
13 -69 50 -50 58 -140 122 -197 140 -68 21 -70 23 -73 81 -7 121 57 273 147
347 81 67 207 122 296 130 l62 4 17 57 c35 115 66 118 66 7 l0 -73 53 -23 c28
-12 58 -24 65 -27 6 -3 12 0 12 6 0 6 -25 23 -55 38 l-55 27 0 64 c0 35 -5 72
-10 83 -15 27 -44 24 -60 -6 -7 -14 -16 -25 -19 -25 -6 0 2 188 14 327 l7 73
79 66 c44 36 84 74 89 84 13 24 13 60 0 60 -5 0 -10 -4 -10 -9 0 -6 -34 -45
-76 -88 l-77 -78 6 120 c9 191 -16 255 -120 302 -65 30 -116 27 -190 -11 -97
-49 -129 -104 -144 -249 -13 -126 -41 -297 -48 -301 -3 -2 -36 29 -74 69 l-67
73 14 39 c7 21 38 99 69 173 30 74 64 158 75 185 28 69 52 181 59 274 l6 79
46 21 c25 12 66 25 91 30 25 5 56 13 70 17 l24 7 -23 -29 c-47 -60 -65 -140
-40 -186 16 -30 86 -58 147 -58 46 0 59 5 95 34 l42 35 25 -19 c26 -20 90 -27
90 -10 0 6 -13 10 -29 10 -20 0 -37 9 -54 29 -18 22 -35 31 -63 33 -37 3 -39
5 -42 40 -3 35 -5 37 -37 36 -45 -2 -68 18 -60 50 4 16 0 31 -10 42 -11 13
-17 39 -18 83 -2 70 -17 96 -69 123 -41 21 -67 17 -100 -16 -27 -28 -30 -36
-25 -75 4 -44 4 -45 -41 -70 -24 -14 -52 -25 -61 -25 -22 0 -93 59 -89 75 2 6
59 59 128 116 69 57 155 134 192 170 77 78 114 90 214 69 61 -13 97 -32 152
-84 28 -26 32 -27 32 -10 -1 26 -17 44 -70 81 -55 37 -107 53 -177 53 -29 0
-53 4 -53 9 0 6 21 40 47 78 25 37 66 111 89 163 37 80 48 97 76 108 17 8 45
11 60 8 24 -5 28 -2 28 16 0 19 -4 20 -56 15 -43 -4 -55 -3 -51 7 49 127 89
330 91 456 1 63 5 121 10 129 5 7 4 16 -1 20 -5 3 -15 35 -22 71 -7 36 -20 73
-29 84 -31 33 -92 57 -170 64 -83 8 -135 -5 -189 -48 -33 -26 -43 -25 -43 1 0
39 -52 253 -74 309 -13 30 -30 76 -40 101 -9 25 -32 72 -52 104 -31 53 -34 61
-23 92 6 19 9 51 7 71 l-3 37 87 -3 c68 -3 103 1 156 17 138 42 190 108 199
255 7 108 -4 131 -57 122 -46 -7 -53 4 -33 52 18 43 10 67 -27 82 -83 34 -301
-63 -425 -189 -27 -28 -54 -51 -61 -51 -6 0 -14 19 -17 41 -3 25 -16 52 -31
68 -33 34 -33 47 2 124 35 76 74 115 158 157 61 32 67 33 157 28 162 -9 254
-70 351 -236 43 -74 125 -264 127 -294 0 -7 13 -40 29 -73 l28 -60 1 45 c2
113 -99 345 -212 485 -86 107 -152 150 -251 161 l-53 6 -7 76 c-17 207 -2 388
39 458 41 70 124 138 191 157 121 33 172 29 243 -19 20 -13 39 -24 43 -24 15
0 8 274 -8 370 -15 86 -15 95 0 105 9 7 16 18 16 24 0 9 -48 10 -197 6 l-198
-7 -29 50 c-34 59 -104 116 -163 131 -54 15 -55 32 -8 118 19 35 35 66 35 68
0 3 -8 5 -18 5 -12 0 -30 -26 -60 -85 l-42 -86 -88 3 c-69 2 -87 6 -88 18 -1
20 -13 78 -25 118 -7 20 -17 32 -29 32 -16 0 -17 -3 -4 -39 7 -21 16 -60 19
-87 l6 -49 -75 -28 c-130 -48 -186 -135 -194 -299 -5 -102 -10 -111 -48 -84
-11 8 -58 22 -105 31 -46 9 -106 20 -132 26 -71 14 -163 11 -176 -5 -6 -7 -18
-52 -27 -99 -15 -82 -35 -129 -49 -116 -12 12 -27 306 -21 415 8 146 20 207
56 277 l29 57 -23 0 c-28 0 -50 -44 -71 -145 -21 -99 -30 -358 -16 -489 6 -60
9 -111 6 -114 -2 -2 -24 -7 -48 -9 -43 -5 -43 -5 -59 34 -30 78 -82 57 -97
-37 -8 -47 -29 -80 -51 -80 -4 0 -17 46 -29 103 -13 56 -32 125 -42 152 -23
62 -23 65 0 65 39 0 107 32 145 68 86 83 116 163 92 245 -13 44 -22 57 -56 77
-23 14 -50 33 -59 42 -12 13 -41 20 -95 25 l-78 6 4 28 c4 26 2 28 -34 27 -34
0 -38 -3 -36 -22 3 -18 -4 -22 -56 -33 -33 -6 -70 -16 -82 -22 -21 -9 -23 -7
-26 22 -3 29 -6 32 -42 35 -42 4 -56 -8 -56 -44 0 -15 8 -24 25 -28 34 -9 31
-16 -16 -49 -22 -15 -44 -38 -50 -51 -10 -20 -21 -24 -97 -32 -59 -6 -86 -13
-85 -21 2 -7 7 -45 13 -85 6 -40 15 -83 20 -95 12 -28 59 -37 125 -24 42 8 57
6 95 -10 25 -11 69 -25 99 -29 29 -5 55 -11 56 -12 2 -2 -2 -30 -9 -63 -8 -42
-20 -70 -41 -92 -35 -39 -71 -45 -60 -10 10 31 9 67 -3 79 -16 16 -48 -7 -61
-43 -13 -36 -24 -31 -52 22 -25 51 -49 49 -65 -6 -12 -45 -25 -48 -38 -7 -11
36 -25 52 -44 52 -12 0 -13 -9 -9 -42 5 -39 4 -41 -8 -23 -8 11 -19 25 -25 32
-5 7 -10 52 -10 100 0 109 -24 283 -45 322 -8 16 -35 46 -60 66 l-44 37 19 39
c20 39 20 39 0 39 -12 0 -26 -12 -36 -31 -14 -29 -19 -31 -52 -25 -21 3 -43 6
-49 6 -7 0 -13 11 -13 25 0 16 -6 25 -15 25 -9 0 -15 -9 -15 -25 0 -21 -5 -25
-28 -25 -37 0 -122 -28 -145 -48 -22 -20 -28 -13 -35 43 -5 51 -2 50 -77 21
-52 -20 -126 -20 -172 -1 -19 8 -40 15 -46 15 -13 0 0 -135 18 -177 l14 -33
-74 -49 c-41 -27 -77 -46 -80 -43 -3 3 -5 28 -5 56 0 28 -5 99 -12 159 -9 82
-15 107 -26 107 -12 0 -14 -14 -8 -85 3 -47 9 -123 12 -170 l7 -85 -30 0 c-17
0 -44 3 -61 6 -28 6 -32 11 -37 53 -4 25 -18 88 -32 138 -15 55 -23 103 -19
118 6 23 4 25 -30 25 -19 0 -34 -3 -32 -8 44 -102 88 -254 88 -308 0 -24 0
-24 -107 -24 -97 0 -249 -24 -281 -44 -11 -7 -46 70 -70 153 -8 32 -15 94 -15
144 0 65 -3 87 -13 87 -7 0 -16 -15 -19 -34 -7 -32 -9 -34 -36 -26 -35 10 -33
10 -59 10 -15 0 -20 7 -20 25 0 16 -6 25 -15 25 -10 0 -15 -10 -15 -30 0 -21
-5 -30 -16 -30 -9 0 -42 -14 -73 -30 -61 -33 -125 -108 -136 -160 -7 -31 -19
-37 -44 -21 -12 8 -12 16 -1 55 13 49 9 141 -9 190 l-11 26 -220 0 c-201 0
-221 -2 -228 -17 -4 -10 -7 -73 -7 -140 l0 -121 -35 -5 c-19 -3 -42 -8 -50
-11 -13 -5 -18 8 -28 75 -6 45 -22 105 -36 134 -16 36 -21 57 -14 68 8 14 4
17 -27 17 -19 0 -35 -2 -35 -5z m611 -15 c37 -20 18 -80 -26 -80 -46 0 -60 48
-23 74 27 19 24 19 49 6z m-275 -18 c21 -14 23 -41 4 -64 -15 -19 -22 -21 -37
-12 -19 12 -28 46 -19 70 6 15 34 19 52 6z m-455 -22 c24 -13 26 -74 4 -127
-16 -37 -16 -37 -36 -17 -12 13 -22 40 -26 74 -5 45 -3 55 12 66 22 17 21 17
46 4z m2661 -40 c9 -11 22 -18 30 -15 7 3 30 -9 50 -26 27 -22 42 -45 53 -82
22 -78 36 -241 29 -339 -7 -86 -7 -86 -30 -76 -12 6 -30 8 -40 4 -15 -6 -15
-9 6 -31 23 -24 16 -37 -7 -14 -7 7 -19 9 -28 6 -14 -6 -14 -9 2 -34 17 -28
17 -28 -3 -10 -42 36 -57 12 -28 -44 21 -42 12 -46 -29 -15 -18 14 -37 23 -40
19 -16 -15 -5 -43 23 -63 17 -12 30 -28 30 -36 0 -18 -3 -18 -50 6 -51 26 -53
26 -45 -12 7 -28 5 -30 -11 -23 -11 5 -51 10 -91 13 l-72 4 -6 57 c-3 31 -10
83 -15 116 -17 108 -33 403 -25 479 8 87 26 111 102 132 67 19 172 10 195 -16z
m-2847 -1 c16 -50 -16 -142 -44 -124 -25 15 -40 130 -18 138 29 12 56 6 62
-14z m1375 10 c37 -11 37 -12 54 -93 9 -44 29 -112 43 -149 35 -93 25 -101
-69 -54 -97 49 -192 73 -226 58 -23 -11 -24 -15 -19 -62 5 -43 4 -50 -9 -45
-9 3 -26 9 -39 12 -17 4 -24 16 -30 47 -16 85 -10 124 29 182 41 63 69 84 134
101 60 16 86 17 132 3z m2331 -6 c65 -20 65 -20 83 -22 8 0 31 -16 50 -35 34
-31 36 -37 36 -95 0 -73 -16 -109 -73 -168 -49 -51 -116 -76 -200 -76 -56 0
-58 -1 -64 -29 -5 -24 -40 -64 -49 -55 -2 1 1 20 6 41 5 21 6 44 4 51 -3 7
-32 15 -66 19 -63 6 -127 36 -161 74 -26 29 -34 130 -13 170 27 52 97 96 216
135 36 12 179 6 231 -10z m-2815 -66 c31 -36 30 -43 -9 -82 -27 -27 -44 -34
-91 -40 -86 -11 -134 -1 -169 33 -23 24 -28 36 -23 56 11 46 72 66 189 63 73
-2 81 -4 103 -30z m1582 7 c27 -19 29 -60 3 -93 -21 -27 -54 -25 -59 4 -8 39
-23 47 -74 41 -55 -8 -61 2 -23 39 19 20 34 25 77 25 32 0 62 -6 76 -16z
m2578 -58 c108 -7 195 -68 247 -171 44 -88 58 -153 64 -297 l6 -137 -26 -12
c-23 -10 -30 -8 -58 15 -62 53 -95 15 -69 -79 10 -37 9 -45 -10 -78 -15 -24
-29 -37 -43 -37 -12 0 -38 -5 -58 -10 -66 -19 -54 -79 23 -111 23 -9 28 -17
24 -33 -3 -12 -6 -30 -6 -41 0 -15 -11 -25 -42 -35 -69 -24 -62 -69 13 -92 34
-10 39 -15 39 -40 0 -20 -6 -31 -22 -37 -34 -13 -70 -55 -62 -74 3 -9 14 -19
25 -22 34 -11 20 -21 -55 -44 -41 -11 -78 -26 -81 -31 -3 -6 -12 -10 -20 -10
-9 0 -15 22 -20 73 -6 66 -28 183 -91 469 -43 197 -119 296 -199 260 -32 -15
-39 -1 -21 42 8 19 18 55 21 80 7 43 6 45 -19 52 -26 6 -26 7 -21 73 13 150
24 182 79 236 68 67 184 107 286 98 19 -1 62 -4 96 -7z m-2666 -39 c0 -51 -90
-287 -109 -287 -3 0 -15 21 -25 48 -11 28 -39 66 -69 94 l-49 46 43 32 c56 41
157 90 187 90 16 0 22 -6 22 -23z m130 -100 c0 -51 11 -180 25 -287 34 -267
37 -243 -39 -280 -59 -28 -107 -69 -119 -102 -9 -27 -16 1 -37 157 -13 88 -31
187 -41 219 -10 35 -15 64 -10 70 21 26 90 176 105 229 15 52 19 57 45 57 16
0 34 7 41 15 24 29 30 14 30 -78z m-2388 43 c27 -54 23 -77 -12 -84 -16 -3
-43 -9 -60 -12 -17 -3 -30 -1 -30 4 0 10 39 26 90 36 14 3 1 3 -27 1 -53 -4
-58 -1 -47 29 4 11 15 14 37 10 31 -4 32 -4 7 8 -35 17 -34 16 -20 33 20 24
43 14 62 -25z m3084 -43 c0 -1 10 -16 22 -33 l22 -32 -23 -6 c-12 -3 -39 -6
-60 -6 -31 0 -40 5 -49 26 -11 23 -10 29 12 46 16 13 32 17 49 13 14 -4 26 -7
27 -8z m-1925 -10 c24 -8 70 -26 101 -42 l56 -27 -52 -52 c-28 -28 -58 -66
-65 -83 -7 -18 -17 -33 -22 -33 -15 0 -87 117 -104 171 -27 80 -8 94 86 66z
m756 -8 c90 -13 129 -37 167 -102 54 -92 113 -354 135 -594 13 -135 18 -350 9
-359 -4 -3 -65 -12 -135 -20 -223 -23 -307 -60 -356 -155 l-28 -55 0 -266 c0
-147 3 -293 6 -325 4 -32 5 -56 2 -52 -4 3 -31 38 -61 79 l-55 73 26 45 c21
36 26 57 27 116 0 60 -5 82 -32 141 -38 79 -61 108 -103 125 -16 7 -29 18 -29
24 0 6 17 56 37 112 l37 101 66 16 c36 9 119 25 185 36 66 11 136 23 155 27
67 12 121 37 142 67 19 26 20 38 14 115 -7 95 -45 275 -82 393 -19 61 -32 84
-64 113 -22 19 -51 38 -64 42 -66 16 -418 -60 -531 -116 -103 -50 -122 -104
-90 -255 8 -38 13 -71 11 -73 -2 -2 -22 2 -44 7 l-40 11 -8 88 c-5 48 -9 150
-9 227 0 125 3 145 23 190 28 60 60 96 127 140 83 55 163 77 310 85 72 4 140
7 152 8 12 1 57 -3 100 -9z m3446 -74 c-2 -57 -23 -155 -33 -155 -15 0 -27
190 -13 204 4 4 16 6 28 4 17 -3 20 -10 18 -53z m153 8 c-8 -62 -37 -154 -46
-148 -9 6 -22 173 -15 186 4 5 20 9 37 9 l31 0 -7 -47z m-5476 -10 c0 -11 -9
-12 -37 -6 -21 4 -53 7 -70 7 -33 0 -43 9 -22 21 5 4 31 10 57 14 48 8 72 -4
72 -36z m978 -18 c28 -9 52 -20 52 -24 0 -3 23 -41 50 -84 l50 -78 4 -167 c2
-92 8 -188 12 -214 8 -57 14 -56 -145 -32 -192 30 -187 27 -211 121 -38 151
-150 62 -225 -180 l-27 -87 -83 0 -83 0 -1 106 c-1 59 -4 116 -7 128 -3 12 0
68 5 124 18 171 84 283 204 343 32 17 61 28 63 26 2 -2 -3 -23 -11 -47 -8 -23
-15 -61 -15 -83 0 -33 6 -46 36 -73 30 -29 43 -34 84 -34 81 0 139 36 140 86
0 28 -63 84 -95 84 -33 0 -75 -20 -75 -37 0 -17 11 -17 44 1 33 17 62 11 81
-17 22 -31 18 -53 -11 -76 -39 -30 -107 -29 -139 3 -32 32 -40 69 -25 119 28
98 65 119 190 113 47 -2 109 -11 138 -21z m-997 -11 c29 -15 36 -44 8 -34 -8
2 -42 4 -76 4 -64 1 -68 2 -57 30 8 21 85 21 125 0z m-31 -44 c0 -5 -12 -10
-27 -10 -16 0 -39 -3 -53 -6 -17 -5 -22 -3 -15 4 17 18 95 28 95 12z m3500
-30 c17 -31 70 -233 70 -265 0 -17 5 -36 11 -42 8 -8 5 -18 -12 -37 l-22 -25
-24 25 c-17 19 -31 25 -49 21 -29 -5 -31 7 -3 31 32 27 42 51 28 68 -16 20
-46 18 -76 -6 -36 -28 -41 -17 -9 21 51 61 12 92 -48 38 -45 -39 -58 -32 -22
11 14 17 26 41 26 52 0 21 54 118 72 129 16 10 48 -2 58 -21z m-3455 10 c20
-7 26 -16 23 -33 -2 -14 -9 -20 -18 -17 -8 2 -48 4 -87 4 -40 -1 -73 2 -73 6
0 16 31 32 77 40 26 4 49 8 50 9 1 0 14 -4 28 -9z m4031 -54 c-3 -24 -7 -50
-8 -57 -3 -13 58 -36 68 -26 4 3 10 27 15 54 5 26 13 51 18 56 10 10 127 -8
151 -23 10 -6 11 -19 2 -62 -6 -29 -7 -56 -4 -60 4 -3 20 -8 37 -10 31 -3 35
3 50 75 5 26 9 28 33 22 52 -12 52 -20 17 -160 -61 -244 -94 -390 -105 -460
-12 -73 -68 -280 -101 -374 -11 -29 -29 -64 -41 -76 l-21 -22 -46 28 c-82 53
-141 48 -222 -16 -60 -47 -73 -34 -49 46 11 34 22 87 25 118 14 121 27 165 69
219 l41 53 105 -5 c58 -3 113 -7 124 -8 15 -3 23 13 47 92 32 104 69 287 69
337 0 30 -2 31 -52 37 -29 4 -81 12 -115 17 -60 11 -63 13 -63 40 0 44 -27 52
-85 23 -63 -30 -69 -30 -61 4 3 15 12 57 20 95 19 84 21 87 57 87 30 0 30 -1
25 -44z m54 -6 c0 -5 -4 -10 -10 -10 -5 0 -10 5 -10 10 0 6 5 10 10 10 6 0 10
-4 10 -10z m-4078 -17 c18 -16 25 -53 10 -53 -5 0 -24 7 -42 16 -18 9 -52 19
-76 22 -28 3 -44 10 -44 18 0 22 128 19 152 -3z m5404 -102 c6 -50 6 -51 -18
-51 -20 0 -27 6 -32 31 -6 29 -4 42 10 107 l7 27 13 -31 c7 -17 16 -54 20 -83z
m77 -29 c-4 -32 -10 -42 -22 -40 -18 4 -18 44 1 113 l11 40 8 -35 c4 -19 5
-54 2 -78z m-1163 88 c0 -5 -4 -10 -10 -10 -5 0 -10 5 -10 10 0 6 5 10 10 10
6 0 10 -4 10 -10z m1227 -75 c-7 -64 -12 -76 -33 -68 -12 4 -14 15 -8 47 14
90 50 108 41 21z m-1853 9 c9 -23 7 -54 -3 -54 -5 0 -16 -3 -25 -6 -19 -7 -21
12 -6 50 11 29 25 34 34 10z m-1962 -29 c14 -49 11 -106 -7 -119 -29 -21 -175
-51 -193 -40 -23 14 -51 72 -54 113 l-3 33 87 18 c48 10 93 21 100 24 32 13
62 1 70 -29z m3588 9 c13 -33 14 -31 -15 -36 -22 -5 -25 -2 -25 22 0 46 25 55
40 14z m-1286 -27 c-9 -30 -9 -30 -33 -15 -27 16 -26 22 2 35 29 14 39 7 31
-20z m-74 -22 c38 -20 77 -81 92 -144 10 -44 8 -58 -12 -118 -29 -88 -79 -166
-220 -339 -63 -78 -137 -172 -164 -209 -26 -37 -56 -69 -65 -71 -9 -3 -40 -17
-69 -31 -29 -14 -54 -24 -56 -22 -21 27 -136 270 -136 287 0 2 7 -1 14 -8 8
-6 25 -10 38 -8 19 2 23 9 22 35 -2 30 0 31 30 26 19 -3 39 1 51 10 19 15 19
16 1 36 -10 11 -28 24 -40 28 -17 6 -12 9 24 13 39 4 45 8 45 29 0 19 -9 27
-42 40 -55 20 -55 31 1 31 75 0 71 42 -5 55 -21 4 -39 10 -39 14 0 5 18 15 41
24 46 18 48 40 6 45 -32 4 -35 18 -6 25 18 5 21 11 16 35 -5 24 2 39 43 89 55
68 90 93 182 128 53 21 75 24 140 20 43 -2 91 -11 108 -20z m-858 -4 c88 -38
141 -140 133 -260 -3 -38 -9 -81 -14 -94 -14 -36 -4 -99 24 -164 25 -55 33
-113 17 -113 -5 0 -17 9 -27 20 -37 40 -58 15 -36 -44 7 -18 6 -27 -3 -35 -20
-17 -46 -2 -53 30 -11 55 -63 66 -63 13 0 -26 -1 -26 -18 -10 -11 9 -25 35
-32 59 -7 23 -19 63 -26 88 -15 48 -54 91 -116 128 -21 13 -38 27 -38 31 0 5
-11 26 -25 46 -20 30 -25 49 -25 101 0 96 47 172 129 210 40 18 124 15 173 -6z
m1438 -33 c38 -35 76 -134 108 -283 56 -257 73 -343 80 -422 7 -78 7 -78 -35
-161 -24 -46 -43 -92 -43 -102 0 -16 -7 -20 -39 -20 -21 0 -52 -3 -68 -6 l-30
-6 -6 61 c-8 95 -44 136 -134 152 -26 5 -50 14 -54 21 -19 30 -30 131 -20 181
6 29 12 63 14 77 3 19 15 29 48 42 24 9 59 17 76 17 28 1 35 -4 54 -41 39 -78
88 -112 103 -72 10 27 7 100 -9 176 -25 118 -20 111 -77 104 -28 -4 -70 -14
-95 -22 -25 -9 -46 -14 -48 -12 -2 2 5 44 16 93 10 50 23 116 29 148 7 33 20
67 31 78 25 25 70 24 99 -3z m563 -12 c21 -16 22 -30 2 -46 -19 -16 -23 -12
-31 28 -7 34 1 39 29 18z m-4345 -126 c20 -80 39 -97 125 -105 133 -13 212
-31 467 -111 9 -3 40 20 77 56 34 33 68 60 77 60 43 0 56 -75 36 -215 -8 -57
-35 -161 -45 -173 -1 -1 -24 7 -50 19 -108 48 -205 1 -205 -98 0 -41 5 -50 40
-84 26 -24 58 -43 86 -50 25 -6 42 -14 40 -17 -3 -3 -33 -6 -66 -7 -45 -2 -70
-9 -98 -27 -77 -52 -132 -126 -132 -180 0 -14 7 -46 17 -73 15 -46 15 -49 -2
-59 -10 -6 -38 -26 -62 -43 -24 -18 -45 -33 -48 -33 -3 0 -5 36 -5 79 0 88
-19 191 -49 272 -11 29 -19 55 -16 57 2 2 26 7 52 10 60 6 118 49 144 106 25
54 23 93 -4 140 -28 48 -84 95 -92 75 -21 -61 -27 -69 -50 -75 -42 -10 -58 12
-51 68 5 38 4 48 -7 48 -8 0 -17 -12 -20 -27 -3 -16 -12 -37 -20 -48 -13 -17
-18 -18 -41 -7 -22 10 -26 18 -26 52 l0 40 -51 0 c-42 0 -62 6 -104 35 -29 18
-64 39 -78 46 -32 15 -31 21 25 167 42 107 80 165 106 160 10 -2 21 -24 30
-58z m1828 50 l27 -11 -21 -15 c-47 -32 -17 -74 52 -74 44 0 50 -27 9 -36 -48
-10 -53 -13 -53 -29 0 -15 15 -20 62 -16 42 3 42 -16 1 -38 -42 -21 -69 -60
-60 -85 8 -20 34 -20 67 -1 44 25 55 17 21 -17 -20 -19 -31 -39 -29 -52 3 -18
11 -21 56 -24 28 -2 52 -7 52 -13 0 -5 -4 -9 -10 -9 -25 0 -45 -89 -26 -116
13 -17 15 -17 39 -1 15 9 30 17 36 17 5 0 12 -62 16 -137 3 -76 8 -150 11
-164 4 -22 -1 -30 -33 -50 -21 -13 -62 -45 -90 -73 l-53 -49 -1 29 c-4 91 -18
150 -59 241 -42 93 -85 149 -137 180 -40 23 -61 28 -139 31 l-91 4 -7 52 c-11
96 -7 285 8 319 25 58 77 107 136 127 61 21 173 26 216 10z m884 -28 c0 -16
-38 -44 -56 -40 -31 6 -26 27 8 37 44 12 48 13 48 3z m669 -33 c17 -6 31 -14
31 -17 0 -9 -66 -52 -79 -52 -5 0 -7 15 -5 33 1 17 3 35 3 40 1 10 12 9 50 -4z
m861 -71 c-1 -36 -12 -55 -31 -51 -22 6 -43 39 -34 53 9 15 65 12 65 -2z
m-461 -96 c11 -20 28 -117 33 -181 4 -56 -14 -64 -42 -19 -18 30 -70 176 -70
198 0 5 12 11 28 13 15 2 30 5 34 6 4 0 12 -7 17 -17z m-365 -38 c17 -7 21
-41 7 -63 -5 -7 -13 -11 -18 -8 -5 3 -34 7 -64 7 -30 1 -69 4 -86 7 l-33 5 17
29 c17 28 21 29 89 29 40 0 79 -3 88 -6z m-3590 -86 c66 -27 93 -44 146 -98
74 -74 114 -143 171 -297 57 -154 80 -254 86 -368 5 -100 5 -100 -27 -144
l-32 -43 -21 20 c-73 68 -194 50 -272 -41 -73 -84 -86 -232 -29 -304 17 -21
50 -48 75 -61 38 -20 54 -23 114 -18 39 3 85 11 103 17 18 6 36 9 39 6 3 -3
-2 -37 -12 -75 l-17 -69 -45 -7 c-25 -3 -71 -6 -102 -7 -31 0 -76 -8 -99 -18
l-44 -17 -87 43 c-96 47 -171 64 -196 43 -38 -32 0 -147 82 -244 32 -37 66
-78 75 -89 18 -22 38 -167 23 -167 -4 0 -16 11 -27 25 -27 35 -93 71 -159 89
-67 17 -156 4 -227 -33 -24 -12 -50 -20 -57 -17 -13 4 -55 162 -55 204 0 12
20 58 43 104 53 101 113 240 132 305 7 26 24 102 36 168 12 66 26 124 29 128
4 4 45 3 91 -4 112 -16 263 -1 317 33 101 62 143 122 167 238 22 105 19 173
-14 291 -53 188 -60 196 -170 229 -65 20 -89 22 -200 18 -129 -6 -125 -5 -328
-77 -33 -12 -78 -37 -98 -54 -34 -30 -37 -36 -37 -85 1 -55 23 -180 49 -270 8
-30 13 -55 11 -57 -2 -2 -40 22 -86 53 -79 54 -82 57 -82 95 0 64 30 196 60
261 16 34 46 82 68 108 33 40 42 45 52 33 19 -23 70 -29 88 -11 20 20 7 35
-40 45 l-33 7 75 50 c92 62 190 92 304 93 68 1 92 -4 160 -31z m1272 -4 c10
-14 18 -44 18 -67 l1 -41 -52 -12 c-28 -6 -80 -15 -116 -18 l-64 -7 -7 32
c-16 82 -1 101 105 124 89 19 96 18 115 -11z m3134 -9 c0 -28 -17 -32 -45 -12
-23 17 -12 37 21 37 19 0 24 -5 24 -25z m-4890 -135 c0 -13 -11 -13 -30 0 -12
8 -11 10 8 10 12 0 22 -4 22 -10z m2780 -3 c0 -14 -20 -37 -32 -37 -10 0 -11
34 -1 43 11 12 33 8 33 -6z m-1471 -17 c18 -5 44 -16 57 -25 l23 -15 -24 -69
c-40 -119 -49 -126 -120 -97 -59 25 -85 59 -85 109 0 61 35 96 105 106 6 0 25
-3 44 -9z m2421 -60 c-15 -100 -45 -195 -61 -193 -15 2 -102 26 -107 29 -5 3
87 135 130 187 23 26 42 46 44 45 2 -2 -1 -33 -6 -68z m1168 27 c4 -30 -5 -34
-33 -13 -11 8 -16 19 -12 30 10 27 42 15 45 -17z m-4360 -11 c67 -23 82 -45
120 -176 40 -136 46 -170 33 -170 -6 0 -11 11 -11 25 0 37 -45 141 -87 202
-20 29 -38 52 -39 50 -2 -1 8 -54 22 -117 18 -86 24 -144 23 -230 -1 -133 -12
-184 -23 -105 -23 164 -89 338 -156 415 -29 33 -30 33 -26 10 2 -14 10 -59 16
-100 6 -41 15 -93 20 -115 14 -67 24 -259 13 -252 -6 4 -34 80 -62 169 -63
193 -88 261 -115 308 l-21 35 -8 -55 c-9 -60 3 -168 34 -320 11 -52 22 -108
25 -125 l5 -30 -19 35 c-19 34 -44 107 -117 343 -61 193 -63 171 -19 -168 12
-99 21 -181 20 -183 -6 -5 -54 127 -71 193 -8 33 -29 105 -46 160 -18 55 -33
106 -35 113 -2 6 -10 12 -17 12 -24 0 -41 -144 -34 -299 5 -128 4 -134 -10
-101 -21 48 -63 255 -63 311 0 35 5 50 23 66 30 28 180 91 258 108 90 20 296
15 367 -9z m1789 -1 c96 -39 186 -216 200 -395 4 -59 2 -83 -12 -115 -12 -27
-19 -76 -23 -152 -2 -62 -6 -113 -7 -113 -2 0 -26 12 -53 26 -30 15 -74 28
-110 31 l-60 6 -47 68 c-41 60 -77 90 -91 76 -2 -2 7 -30 22 -61 27 -60 26
-86 -3 -86 -10 0 -36 -11 -59 -24 -29 -16 -58 -23 -105 -25 -82 -2 -137 -19
-156 -47 -8 -13 -16 -57 -18 -108 -3 -52 -11 -95 -19 -109 -9 -12 -20 -46 -27
-76 -6 -29 -14 -49 -19 -44 -9 10 -97 203 -117 258 -21 55 -32 637 -14 712 28
115 120 164 353 188 166 17 308 14 365 -10z m511 -48 c-12 -56 1 -80 41 -75
18 2 30 14 45 45 12 23 24 42 27 43 6 0 59 -149 59 -167 0 -8 -15 -13 -37 -14
-35 0 -147 -26 -184 -43 -14 -6 -18 4 -24 78 -6 77 -5 86 14 105 12 12 21 26
21 31 0 19 33 61 41 53 4 -4 3 -30 -3 -56z m335 0 c4 3 7 2 7 -4 0 -17 -13
-23 -27 -12 -7 6 -13 16 -13 21 0 7 5 6 13 -1 8 -6 17 -8 20 -4z m-129 -40
c-6 -16 -34 -13 -34 4 0 4 7 6 15 3 8 -4 15 -1 15 7 0 7 2 10 5 7 3 -3 3 -12
-1 -21z m1138 -12 c5 -24 -16 -54 -28 -42 -8 8 6 67 16 67 4 0 10 -11 12 -25z
m-1041 -39 c-10 -25 -31 -36 -31 -16 0 6 4 10 9 10 5 0 13 9 16 21 4 11 9 19
11 16 3 -2 0 -16 -5 -31z m119 -17 c0 -5 -4 -9 -10 -9 -5 0 -10 7 -10 16 0 8
5 12 10 9 6 -3 10 -10 10 -16z m1050 -17 c56 -28 80 -73 80 -153 0 -38 4 -69
9 -69 5 0 25 7 44 15 102 43 181 -16 164 -121 -5 -31 -4 -35 11 -29 62 27 87
32 121 24 43 -10 67 -36 81 -91 14 -50 5 -90 -27 -129 -22 -26 -24 -34 -14
-55 19 -42 13 -74 -19 -106 -30 -30 -60 -34 -120 -17 -11 3 -14 -2 -11 -16 3
-11 5 -38 5 -60 1 -47 7 -47 -129 -5 -127 40 -200 38 -299 -8 -77 -36 -164
-114 -197 -177 -26 -50 -48 -56 -98 -30 -37 19 -73 93 -79 162 -2 29 -8 53
-13 53 -5 0 -9 -7 -9 -15 0 -22 -48 -115 -74 -143 -26 -29 -94 -65 -110 -59
-6 3 -17 50 -24 111 -14 115 -24 150 -51 181 -10 11 -28 49 -41 85 -12 36 -24
67 -26 69 -8 9 -44 -33 -44 -51 0 -10 -4 -18 -8 -18 -5 0 -12 49 -15 108 -5
85 -13 128 -38 198 -56 160 -55 154 -25 203 20 32 41 49 82 67 107 47 172 44
254 -12 l52 -36 37 35 c48 46 71 57 121 57 45 0 85 -17 114 -49 21 -24 46 -28
46 -8 0 19 60 74 100 91 47 20 107 20 150 -2z m-1020 -71 c0 -5 -9 -7 -20 -4
-11 3 -20 7 -20 9 0 2 9 4 20 4 11 0 20 -4 20 -9z m-1922 -25 c16 -8 39 -30
50 -48 28 -45 62 -150 62 -190 0 -34 -36 -118 -51 -118 -5 0 -30 15 -56 33
-77 53 -148 77 -230 77 -81 0 -95 11 -95 74 0 69 63 160 132 189 26 11 156 -1
188 -17z m1805 -15 c37 -19 67 -37 67 -40 0 -3 -7 -15 -15 -25 -19 -25 -20
-131 -2 -166 20 -39 60 -57 97 -43 41 15 45 6 59 -138 16 -155 13 -165 -52
-173 -29 -3 -84 -6 -123 -6 l-71 0 -27 53 c-14 28 -35 63 -45 76 l-19 24 -21
-48 c-11 -26 -21 -56 -21 -67 0 -21 -42 -64 -71 -73 -30 -10 -22 -26 9 -19 78
17 115 20 322 19 294 -1 270 15 310 -193 15 -77 12 -225 -5 -317 -37 -196
-122 -429 -161 -442 -8 -3 -13 52 -17 174 -7 195 -41 418 -75 495 -40 92 -127
158 -206 158 -20 0 -67 -8 -103 -17 -54 -13 -75 -25 -109 -59 -51 -50 -58 -81
-46 -182 l9 -73 -33 -14 c-43 -18 -110 -88 -126 -131 -6 -19 -14 -34 -18 -34
-3 0 -16 16 -29 36 l-24 35 22 27 c111 138 77 393 -78 579 l-51 61 9 123 c6
76 16 139 26 164 27 62 148 176 233 219 94 47 129 55 233 53 75 -2 93 -6 152
-36z m1971 2 c10 -26 -8 -35 -40 -19 -58 29 -141 -4 -269 -108 -44 -36 -88
-66 -98 -66 -27 0 -20 10 53 74 99 88 198 134 291 135 44 1 58 -3 63 -16z
m-1831 -28 c-3 -9 -8 -14 -10 -11 -3 3 -2 9 2 15 9 16 15 13 8 -4z m1735 -42
c19 -37 22 -82 6 -98 -9 -8 -19 -15 -23 -15 -16 0 -91 63 -91 76 0 17 57 54
82 54 10 0 21 -8 26 -17z m-1732 -85 c13 -26 24 -55 24 -65 0 -10 -10 2 -21
27 -11 25 -32 57 -46 72 -15 16 -22 31 -18 39 10 15 26 -4 61 -73z m1920 16
c8 -30 -3 -131 -18 -176 -19 -55 -46 -86 -101 -112 -84 -39 -273 -57 -292 -26
-2 4 1 14 8 23 10 15 20 16 72 7 33 -5 76 -7 95 -4 50 9 120 47 155 84 28 30
30 36 31 120 1 48 5 93 8 99 13 20 35 12 42 -15z m-3940 -154 c72 -35 154
-111 210 -195 62 -93 127 -212 164 -300 108 -262 132 -305 202 -369 37 -33 68
-65 68 -69 0 -5 -16 -28 -36 -50 -49 -58 -121 -212 -134 -289 -20 -116 -14
-108 -61 -91 -32 10 -49 11 -72 3 -16 -5 -31 -10 -33 -10 -1 0 -24 27 -50 60
-26 33 -55 60 -65 60 -19 0 -23 21 -34 181 -6 76 -4 92 14 128 28 53 69 210
77 286 5 51 3 64 -14 85 -18 22 -22 23 -58 12 -22 -6 -68 -36 -104 -67 -55
-46 -69 -54 -90 -48 -14 4 -74 8 -133 8 l-109 0 -83 86 c-135 140 -167 209
-144 318 14 69 47 121 118 189 120 114 233 137 367 72z m-523 -166 c35 -26 38
-35 22 -80 -22 -60 -18 -122 10 -183 14 -30 22 -58 18 -62 -4 -4 -26 -16 -48
-28 -108 -57 -248 9 -274 129 -10 45 -9 57 10 99 22 52 82 117 126 138 37 17
104 10 136 -13z m1654 -38 c48 -25 128 -105 180 -181 30 -45 71 -174 78 -252
9 -84 -15 -162 -69 -224 l-35 -42 44 -56 c24 -31 54 -78 66 -105 51 -116 76
-299 46 -341 -11 -15 -23 -17 -63 -12 -43 4 -55 11 -97 57 -26 29 -49 51 -51
49 -1 -2 -9 -26 -16 -54 -24 -93 -50 -116 -133 -118 -51 -1 -52 0 -58 34 -13
61 -90 100 -139 69 -11 -7 -23 0 -46 26 -38 41 -83 45 -145 13 l-41 -20 -22
20 c-29 27 -75 43 -103 36 -19 -4 -23 -1 -23 18 0 66 76 225 147 309 l45 52
-33 25 c-130 97 -174 181 -167 321 4 73 9 93 37 142 63 111 199 221 312 253
86 24 221 15 286 -19z m653 -88 c0 -5 -11 -8 -25 -8 -22 0 -25 4 -25 33 0 19
3 37 7 41 6 6 42 -49 43 -66z m416 37 c18 -43 13 -54 -21 -47 -19 3 -25 10
-25 31 0 23 15 51 28 51 1 0 10 -16 18 -35z m1310 -146 c32 -52 109 -254 128
-339 8 -36 20 -101 27 -146 l12 -81 -43 -76 c-24 -43 -47 -77 -51 -77 -7 0
-19 86 -19 142 0 57 -49 257 -78 316 -14 28 -47 79 -73 111 -26 33 -49 66 -51
73 -1 7 4 34 12 60 13 43 17 47 50 51 19 2 41 4 47 5 7 1 24 -16 39 -39z
m-321 -41 c249 -70 346 -272 360 -748 8 -262 19 -354 52 -427 31 -69 99 -153
150 -184 l36 -22 -27 -23 c-14 -13 -45 -28 -68 -34 -45 -13 -154 -5 -164 12
-12 19 6 56 31 62 36 9 65 41 65 72 0 24 -2 26 -44 22 -41 -3 -46 0 -68 31
-13 19 -44 45 -70 58 -43 22 -48 27 -48 58 0 32 -27 75 -47 75 -26 -1 -53 -49
-53 -95 0 -20 -15 -31 -97 -70 l-98 -46 -45 20 c-63 28 -87 34 -155 36 -68 2
-86 -4 -132 -48 l-32 -30 -9 24 c-5 13 -11 33 -13 43 -4 17 -11 20 -61 17 -56
-2 -56 -2 -74 35 -14 29 -15 39 -5 42 6 2 32 19 57 38 24 19 49 34 54 34 11 0
14 25 11 80 -3 42 -33 112 -66 156 l-24 31 39 38 c74 73 82 115 71 401 -3 81
-1 98 22 147 50 110 148 188 267 213 61 13 84 11 185 -18z m-1306 -68 c75 -38
114 -115 146 -287 35 -192 48 -488 22 -499 -7 -2 -42 6 -77 18 -63 22 -65 24
-72 64 -10 64 -85 242 -126 304 -41 60 -85 95 -143 110 -40 11 -41 16 -51 140
-6 64 50 131 124 150 24 6 48 13 53 15 28 10 90 3 124 -15z m-2234 -98 c38
-41 46 -55 35 -62 -16 -10 -129 -24 -136 -17 -5 5 12 113 22 146 4 13 6 13 18
0 7 -8 35 -38 61 -67z m573 -24 c2 -27 1 -48 -2 -48 -3 0 -21 17 -40 38 -32
34 -34 38 -18 50 9 7 26 11 37 10 16 -2 21 -12 23 -50z m-78 2 c10 -5 31 -29
47 -52 25 -38 27 -47 19 -80 -10 -39 -26 -52 -26 -20 0 28 -47 89 -80 103 -36
16 -37 23 -8 43 27 19 24 19 48 6z m2320 -20 c-19 -13 -30 -13 -30 0 0 6 10
10 23 10 18 0 19 -2 7 -10z m-3468 -50 c-17 -16 -33 -30 -36 -30 -3 0 -6 14
-6 30 0 28 3 30 36 30 l36 0 -30 -30z m3633 12 c38 -7 40 -9 42 -47 2 -22 7
-87 13 -145 6 -59 6 -118 1 -135 l-8 -30 -16 36 c-17 42 -71 197 -98 283 l-18
58 22 -7 c12 -4 40 -10 62 -13z m-3542 -9 c4 -3 -11 -25 -32 -48 -21 -23 -40
-48 -43 -55 -2 -8 -9 -10 -16 -6 -18 11 -5 46 31 83 32 32 48 39 60 26z m917
-29 c23 -21 50 -54 61 -75 35 -70 67 -202 74 -309 4 -58 8 -114 10 -126 2 -12
9 -89 15 -171 l12 -150 -27 -42 c-29 -43 -28 -54 7 -103 10 -13 7 -24 -15 -56
-14 -23 -32 -62 -38 -88 -11 -44 -11 -48 10 -65 11 -10 26 -19 31 -21 6 -2 4
-19 -6 -45 -19 -49 -14 -81 20 -120 l25 -28 -21 -22 c-31 -33 -30 -109 1 -134
13 -11 30 -19 38 -19 12 0 13 -6 8 -27 -4 -16 -11 -44 -14 -63 -4 -22 -9 -31
-14 -22 -5 6 -16 12 -26 12 -11 0 -22 14 -31 38 -43 121 -125 257 -187 312
-70 63 -218 140 -267 140 -20 0 -20 3 5 84 18 56 26 70 49 77 15 6 33 21 41
35 30 56 -40 107 -97 69 -27 -17 -31 -51 -11 -80 12 -15 11 -27 -4 -77 -31
-99 -25 -95 -143 -100 -74 -3 -112 -9 -130 -21 -14 -9 -28 -17 -31 -17 -3 0
-5 38 -5 83 l0 84 40 12 c61 18 87 66 54 102 -12 14 -13 22 -4 39 6 11 10 33
8 48 -2 21 -9 28 -30 30 -27 3 -27 4 -22 61 6 51 4 60 -19 87 -31 35 -51 28
-82 -29 -11 -20 -23 -37 -26 -37 -4 0 -10 16 -14 36 -3 20 -24 75 -47 123 -32
70 -41 103 -48 176 -5 50 -12 122 -16 161 -11 117 30 181 146 223 19 7 85 15
145 17 61 2 150 10 198 16 48 7 144 15 212 16 l123 4 42 -38z m104 3 c17 -19
40 -59 51 -89 16 -48 17 -60 5 -87 -13 -32 -30 -42 -30 -17 0 24 -60 160 -80
181 -11 12 -20 27 -20 33 0 24 43 11 74 -21z m2260 -11 c-3 -9 -10 -16 -15
-16 -5 0 -4 9 3 20 14 22 21 20 12 -4z m-3202 -7 c20 -11 20 -11 -5 -37 -31
-34 -43 -57 -51 -104 -4 -21 -9 -38 -12 -38 -14 0 -57 36 -64 54 -15 40 50
121 108 135 2 1 12 -4 24 -10z m3340 -61 c-8 -8 -9 -4 -5 13 4 13 8 18 11 10
2 -7 -1 -18 -6 -23z m-857 -32 c64 -27 115 -96 168 -229 33 -81 63 -185 56
-191 -2 -1 -51 -12 -109 -24 -61 -12 -130 -34 -164 -52 -32 -16 -62 -28 -66
-25 -12 8 -78 187 -112 308 -24 87 77 227 165 227 15 0 43 -7 62 -14z m739
-60 c-3 -9 -10 -16 -15 -16 -5 0 -4 9 3 20 14 22 21 20 12 -4z m1612 -14 c55
-28 90 -70 105 -122 6 -25 12 -108 13 -185 1 -131 -2 -150 -37 -290 -57 -227
-99 -335 -181 -465 -77 -123 -156 -218 -232 -282 -41 -34 -112 -96 -157 -135
-44 -40 -83 -71 -85 -69 -2 2 12 28 31 57 19 30 44 73 56 97 21 41 21 45 6
117 -19 92 -19 85 8 85 32 0 87 36 87 57 0 10 -9 24 -20 31 -25 15 -64 92 -53
103 5 5 23 5 41 0 55 -16 155 6 197 44 19 18 35 37 35 43 0 5 -22 24 -50 42
-27 18 -63 49 -80 70 -31 39 -80 135 -80 158 0 7 30 -11 67 -39 37 -28 73 -53
80 -56 8 -3 13 -21 13 -43 0 -50 15 -58 48 -27 21 19 41 26 86 29 49 4 63 10
83 32 13 15 23 40 23 56 0 52 -39 82 -192 148 -197 86 -245 132 -234 225 13
103 144 284 238 328 52 24 126 20 184 -9z m-5436 -36 c0 -14 11 -61 25 -105
l25 -80 -25 -27 c-14 -15 -25 -31 -25 -35 0 -5 -4 -9 -10 -9 -5 0 -10 8 -10
17 0 9 -16 52 -36 94 l-36 77 38 46 c43 52 54 56 54 22z m3966 -2 c-4 -9 -9
-15 -11 -12 -3 3 -3 13 1 22 4 9 9 15 11 12 3 -3 3 -13 -1 -22z m-226 -55 c0
-5 -4 -9 -8 -9 -5 0 -9 7 -9 15 0 8 4 12 9 9 4 -3 8 -9 8 -15z m303 -59 c7 0
4 -5 -6 -11 -24 -14 -28 -9 -20 21 6 19 8 21 11 8 2 -10 9 -18 15 -18z m-173
5 c0 -12 -19 -12 -23 0 -4 9 -1 12 9 8 7 -3 14 -7 14 -8z m-3475 -20 c95 -28
189 -149 240 -308 14 -43 25 -98 25 -122 0 -24 5 -47 10 -50 17 -10 39 14 46
50 8 42 40 95 58 95 31 0 33 -52 7 -128 -21 -60 -10 -77 31 -48 29 21 38 20
38 -2 0 -18 -40 -67 -61 -74 -25 -8 3 -29 31 -23 34 7 46 -7 24 -29 -14 -15
-32 -21 -79 -28 -18 -3 -19 -10 -16 -96 1 -50 -1 -92 -6 -92 -5 0 -26 18 -48
40 -34 35 -41 50 -44 97 -2 31 -81 22 -103 -11 -27 -40 13 -92 62 -82 26 5 39
0 76 -31 24 -21 44 -40 44 -44 0 -4 -17 -15 -37 -24 -61 -29 -204 -181 -240
-256 -40 -82 -72 -199 -79 -286 -8 -103 -10 -108 -59 -139 -25 -15 -52 -39
-60 -51 -27 -41 -34 -25 -34 70 1 142 -41 297 -127 469 -45 89 -67 121 -130
183 l-76 75 6 48 c4 26 18 92 30 147 13 55 32 134 41 175 10 41 21 129 24 196
l7 120 39 47 c46 56 88 83 165 108 69 22 127 23 195 4z m3306 -107 c7 -35 13
-67 14 -73 0 -9 -85 -8 -94 1 -5 5 52 134 60 134 3 0 12 -28 20 -62z m106 27
c0 -8 -4 -12 -9 -9 -4 3 -8 9 -8 15 0 5 4 9 8 9 5 0 9 -7 9 -15z m243 11 c0
-3 -4 -8 -10 -11 -5 -3 -10 -1 -10 4 0 6 5 11 10 11 6 0 10 -2 10 -4z m-23
-111 c52 -60 82 -124 75 -161 -4 -22 -6 -23 -32 -9 -82 42 -166 225 -105 225
8 0 35 -25 62 -55z m-241 -22 c-18 -33 -21 -26 -6 13 6 15 13 24 16 21 3 -3
-1 -18 -10 -34z m147 -30 c25 -56 82 -126 123 -149 18 -11 18 -12 -6 -32 -35
-29 -53 -27 -96 10 -48 42 -74 100 -74 164 0 84 17 86 53 7z m-253 11 c14 -3
38 -15 53 -26 22 -16 26 -23 16 -34 -18 -21 -3 -117 27 -175 17 -35 39 -59 71
-79 58 -37 71 -37 99 -2 l22 27 13 -27 c18 -41 -3 -103 -44 -129 -40 -25 -112
-20 -163 12 -81 50 -217 420 -161 442 12 5 23 4 67 -9z m-2003 -42 c31 -41 32
-43 17 -79 -12 -28 -13 -42 -4 -61 6 -14 9 -25 8 -26 -2 -1 -15 -7 -30 -14
-34 -14 -34 -12 -43 127 -8 118 -2 123 52 53z m1754 17 c85 -28 148 -68 156
-99 3 -14 18 -54 33 -90 41 -97 44 -110 26 -110 -38 0 -94 -33 -111 -64 l-18
-34 -83 6 c-71 4 -88 2 -128 -17 -41 -21 -82 -59 -104 -97 -7 -13 -15 -13 -68
1 -68 18 -123 13 -171 -17 -33 -19 -73 -74 -77 -106 -2 -9 -7 -15 -12 -13 -5
2 -26 11 -47 20 l-39 16 41 33 c47 38 51 55 16 78 -23 15 -24 18 -10 34 19 21
20 66 1 73 -12 5 -12 15 3 64 37 123 128 240 220 285 117 56 267 71 372 37z
m-1385 -43 c19 -19 34 -43 34 -55 0 -30 14 -26 27 8 11 29 40 54 80 65 34 11
75 -32 82 -85 l6 -44 23 38 c37 58 93 62 125 8 12 -21 14 -36 7 -60 l-9 -32
34 7 c66 12 103 -72 50 -114 -31 -25 -31 -32 -1 -32 13 0 29 -6 35 -14 20 -24
17 -53 -20 -222 -21 -96 -23 -102 -56 -120 -49 -26 -122 -109 -151 -173 -35
-76 -29 -169 20 -277 38 -86 58 -142 58 -166 0 -25 -33 -48 -60 -41 l-25 6 21
-24 c32 -37 36 -47 24 -69 -19 -36 -100 -18 -100 24 0 6 -5 17 -12 24 -9 9
-21 3 -50 -24 -31 -27 -46 -34 -71 -32 -27 3 -34 9 -48 46 l-16 44 -18 -28
c-21 -33 -64 -71 -88 -80 -26 -8 -43 10 -88 97 -23 43 -59 100 -82 126 -75 87
-74 87 -54 80 9 -4 17 -2 17 3 0 6 -4 10 -8 10 -5 0 -23 14 -40 31 -51 50 -39
104 27 124 30 9 14 20 -46 30 -55 9 -77 34 -69 78 8 45 39 72 79 69 30 -1 29
0 -18 22 -43 20 -80 59 -84 89 -3 21 33 69 62 81 19 9 25 15 15 15 -27 1 -87
33 -93 49 -9 24 15 95 42 123 13 15 39 30 55 33 35 7 30 18 -10 23 -27 4 -62
35 -62 57 0 7 16 31 35 53 33 39 58 52 129 68 l29 6 -31 19 c-33 20 -36 29
-26 67 8 31 75 56 111 42 16 -6 35 -16 43 -23 8 -7 23 -16 33 -19 15 -6 17 -3
12 14 -10 31 3 69 28 79 39 16 58 11 93 -24z m1534 24 c0 -5 -4 -10 -10 -10
-5 0 -10 5 -10 10 0 6 5 10 10 10 6 0 10 -4 10 -10z m1471 -36 c23 -26 133
-82 253 -130 74 -30 106 -59 106 -96 0 -30 -29 -56 -74 -64 -31 -5 -34 9 -5
30 32 22 17 42 -39 55 -28 7 -73 30 -103 52 -59 44 -179 159 -179 171 0 15 17
8 41 -18z m-2113 -6 c-2 -12 -8 -23 -14 -25 -7 -2 -10 6 -7 22 6 30 26 34 21
3z m-211 -30 c29 -28 39 -32 96 -32 l64 -1 -43 -89 c-24 -49 -46 -104 -50
-122 -9 -50 -22 -41 -16 11 4 42 3 45 -23 55 -45 17 -81 3 -125 -51 l-42 -49
-25 31 c-22 26 -24 33 -14 56 6 14 9 40 5 58 -5 31 -4 34 25 40 34 7 87 63 97
100 8 32 11 31 51 -7z m2459 -153 c24 -21 31 -34 25 -43 -13 -21 -61 8 -132
79 -41 41 -59 67 -59 85 0 24 3 22 66 -33 36 -32 81 -71 100 -88z m98 -41 c22
-8 20 -18 -10 -53 -35 -42 -48 -40 -39 6 10 55 15 60 49 47z m-2547 -15 c15
-15 0 -55 -35 -92 -19 -20 -23 -30 -15 -38 9 -9 20 -6 45 9 39 24 78 20 78 -9
0 -16 -39 -49 -75 -63 -6 -2 -6 -8 1 -15 7 -8 18 -9 36 -2 19 7 31 6 44 -4 11
-7 17 -15 14 -17 -3 -2 -26 -20 -52 -41 -28 -23 -57 -37 -75 -37 -15 -1 -53
-9 -83 -20 -81 -28 -83 -28 -76 25 18 114 76 238 136 288 35 30 41 32 57 16z
m976 -75 c42 -47 104 -83 144 -84 52 0 48 -94 -6 -142 -29 -26 -86 -48 -124
-48 -34 0 -77 29 -77 53 0 49 -24 103 -62 142 -38 38 -40 41 -27 65 14 25 71
60 98 60 7 0 32 -21 54 -46z m405 24 c5 -7 13 -32 17 -55 5 -34 3 -47 -16 -72
-12 -17 -26 -28 -30 -26 -16 11 -80 139 -75 151 7 18 90 19 104 2z m289 -9
c50 -10 91 -34 80 -45 -3 -4 -18 1 -31 10 -14 9 -37 16 -50 16 -38 0 -47 -59
-17 -114 51 -97 193 -233 321 -311 80 -48 112 -54 149 -29 20 14 22 22 16 60
-4 28 -2 44 4 44 17 0 42 -47 48 -90 8 -56 -15 -80 -76 -80 -83 0 -176 55
-354 210 -99 87 -119 114 -166 239 -39 101 -29 113 76 90z m-125 -53 c15 -70
70 -180 112 -224 l41 -43 -52 -50 c-29 -28 -53 -56 -52 -62 0 -7 21 -25 46
-42 26 -16 48 -35 50 -41 2 -5 -11 -27 -29 -48 l-33 -37 -53 27 c-29 14 -54
25 -56 23 -1 -2 -19 -25 -39 -50 -20 -25 -37 -50 -37 -54 0 -5 12 -23 26 -42
30 -39 29 -40 -51 -115 -43 -41 -50 -45 -53 -28 -2 11 9 55 24 97 39 113 44
262 15 398 -12 55 -24 112 -28 127 -4 19 3 39 27 75 42 61 111 134 124 130 6
-2 14 -20 18 -41z m473 9 c0 -26 -3 -30 -29 -30 -36 0 -56 26 -36 50 8 9 24
15 39 13 22 -2 26 -8 26 -33z m-705 -110 c51 -106 74 -215 74 -355 0 -74 -5
-142 -12 -168 l-13 -44 -26 26 c-37 37 -109 37 -155 -1 -52 -44 -65 -62 -112
-158 -84 -173 -94 -239 -51 -325 27 -54 48 -70 92 -70 15 0 33 -4 40 -8 25
-16 -5 -32 -77 -42 -87 -12 -170 -56 -201 -107 -17 -28 -19 -44 -15 -138 4
-86 10 -114 27 -141 12 -19 20 -36 18 -37 -7 -5 -75 -27 -81 -27 -4 0 -10 15
-14 33 -15 71 -78 245 -114 317 -50 100 -110 161 -184 189 -31 11 -71 21 -89
21 -56 0 -60 8 -58 114 1 52 -3 122 -10 155 l-11 60 36 34 c20 19 43 51 51 71
28 65 -2 154 -59 178 -59 23 -63 58 -8 58 48 0 137 42 153 72 16 32 15 31 37
19 10 -5 48 -15 84 -21 115 -18 216 32 259 129 10 23 18 29 29 24 8 -5 47 -8
85 -8 52 0 79 5 105 21 43 25 80 87 80 135 0 26 8 46 28 67 l27 31 18 -22 c10
-12 31 -49 47 -82z m-541 81 c37 -19 89 -80 97 -112 21 -81 -29 -183 -105
-217 -57 -25 -169 -20 -209 10 -51 38 -72 80 -72 147 0 70 13 95 78 150 41 34
48 36 113 36 42 0 81 -6 98 -14z m1031 -27 c0 -6 -4 -7 -10 -4 -5 3 -10 11
-10 16 0 6 5 7 10 4 6 -3 10 -11 10 -16z m58 -57 c6 -18 -15 -14 -22 4 -4 10
-1 14 6 12 6 -2 14 -10 16 -16z m296 2 c11 -29 6 -45 -16 -53 -40 -15 -82 25
-57 55 16 19 65 18 73 -2z m-1754 -20 c40 -16 40 -16 40 -71 0 -41 7 -68 27
-104 35 -65 24 -90 -52 -125 -67 -31 -87 -26 -122 29 -15 23 -47 63 -70 89
-65 72 -57 127 27 177 42 25 95 27 150 5z m1510 -29 c20 -24 6 -28 -15 -5 -10
11 -13 20 -8 20 6 0 16 -7 23 -15z m-3615 -76 c24 -45 53 -191 44 -216 -5 -15
-22 -24 -59 -32 -60 -13 -130 -14 -148 -2 -21 13 -82 203 -71 222 10 20 52 38
115 48 91 16 102 14 119 -20z m3681 4 c-7 -7 -26 7 -26 19 0 6 6 6 15 -2 9 -7
13 -15 11 -17z m238 -5 c7 -18 24 -43 36 -56 31 -33 20 -52 -33 -52 -37 0 -46
4 -57 26 -12 22 -12 29 4 52 9 15 20 35 23 45 7 24 11 22 27 -15z m-3747 -19
c104 -39 235 -184 290 -320 35 -87 34 -101 -8 -122 -75 -36 -307 -109 -456
-142 -175 -39 -417 -61 -547 -50 l-79 7 6 77 c5 77 43 215 78 283 52 103 236
266 265 236 7 -7 21 -45 32 -84 24 -91 50 -135 86 -147 42 -14 193 10 217 34
23 23 24 77 4 174 -21 100 -23 96 37 79 28 -9 62 -20 75 -25z m1630 -4 c88
-40 165 -137 179 -223 l6 -39 -67 -7 c-107 -11 -206 -47 -265 -97 -28 -24 -58
-56 -66 -71 -21 -39 -18 -121 4 -141 57 -52 204 -62 329 -22 57 18 79 21 85
12 16 -26 27 -146 20 -216 l-7 -74 -56 -16 c-30 -9 -80 -33 -110 -55 -103 -73
-155 -170 -165 -309 -6 -73 -2 -113 22 -218 6 -26 5 -26 -70 -32 -42 -4 -92
-14 -113 -22 -20 -8 -38 -13 -40 -11 -3 2 0 21 6 43 15 54 13 236 -3 314 -16
72 -46 141 -78 176 -20 21 -20 23 -3 74 36 108 7 278 -81 465 -52 112 -56 173
-16 258 45 97 123 167 215 195 165 49 200 51 274 16z m1948 -26 c11 -17 -1
-21 -15 -4 -8 9 -8 15 -2 15 6 0 14 -5 17 -11z m-201 -109 c113 -92 181 -127
262 -137 23 -3 51 0 63 6 14 8 21 8 21 1 0 -15 -43 -96 -79 -150 l-31 -45 -75
-1 c-41 -1 -92 -8 -112 -14 -65 -21 -172 -91 -217 -142 l-43 -50 -59 30 c-33
16 -79 36 -103 43 -23 7 -45 19 -48 26 -3 8 20 40 51 73 31 32 56 64 56 71 0
7 -12 26 -27 41 l-27 28 21 28 c26 35 45 38 93 13 22 -11 45 -18 52 -15 20 8
83 101 83 121 0 9 -19 31 -42 48 -23 16 -42 34 -42 40 -1 14 61 75 77 75 8 0
64 -41 126 -90z m256 60 c0 -5 -2 -10 -4 -10 -3 0 -8 5 -11 10 -3 6 -1 10 4
10 6 0 11 -4 11 -10z m-1744 -226 c45 -12 59 -105 25 -160 -47 -77 -184 -134
-321 -134 -133 1 -187 42 -160 124 21 65 151 147 260 165 65 10 166 13 196 5z
m961 -124 c30 -59 3 -276 -47 -376 -51 -104 -109 -136 -180 -99 -87 45 -78
187 25 370 36 65 64 95 110 120 41 21 77 16 92 -15z m1138 -2 c33 -26 54 -71
47 -104 -5 -27 -47 -54 -84 -54 -13 0 -57 -14 -99 -31 l-76 -32 -7 -68 c-3
-38 -17 -104 -31 -146 -14 -43 -25 -85 -25 -94 0 -19 -20 -29 -60 -29 -20 0
-44 -16 -89 -59 l-61 -59 0 -69 c0 -62 4 -76 36 -128 42 -70 43 -63 -36 -245
-54 -125 -69 -162 -130 -321 -19 -50 -25 -57 -60 -68 -30 -9 -46 -22 -65 -55
-26 -44 -34 -119 -15 -131 20 -12 9 -62 -29 -142 -34 -70 -43 -81 -70 -86 -18
-4 -53 -28 -85 -59 -44 -43 -56 -62 -62 -96 -4 -23 -9 -42 -13 -42 -3 0 -14
19 -23 41 -20 47 -23 40 64 160 60 84 201 362 259 511 41 106 46 114 84 133
74 37 101 154 51 227 -12 19 -25 54 -28 79 -3 24 -18 71 -33 104 -38 81 -196
237 -376 372 l-137 102 24 73 c13 40 24 89 24 110 0 25 5 38 13 38 25 0 132
-41 191 -73 54 -29 63 -39 97 -105 69 -138 132 -176 294 -177 83 0 108 4 148
22 41 19 52 30 75 80 23 50 27 71 27 149 l0 91 35 0 c23 -1 53 11 88 32 l53
33 -7 45 c-5 38 -3 48 17 69 28 30 39 30 74 2z m-3560 -58 c3 -5 12 -47 20
-92 19 -104 20 -248 2 -272 -11 -14 -15 6 -30 133 -10 83 -24 173 -31 201 -7
27 -11 52 -8 54 6 6 39 -11 47 -24z m-76 -11 c13 -38 9 -44 -60 -95 -55 -40
-207 -84 -292 -84 -58 0 -121 -16 -157 -41 -14 -9 -70 -27 -125 -40 -170 -40
-419 -26 -502 29 -25 15 -32 61 -10 63 6 0 64 0 127 -1 281 -3 584 51 855 153
66 25 127 46 137 46 9 1 20 -12 27 -30z m3281 -31 c50 -51 62 -82 63 -167 1
-63 -3 -85 -23 -125 -29 -56 -50 -72 -118 -90 -113 -30 -235 9 -302 97 -57 77
-65 102 -40 137 27 38 115 112 160 135 57 30 111 44 171 44 51 1 60 -2 89 -31z
m-3121 -30 c35 -38 47 -103 37 -203 -7 -67 -33 -155 -46 -155 -17 0 -30 29
-26 56 15 94 16 128 6 204 -6 47 -14 95 -17 108 -7 31 11 27 46 -10z m-139
-42 c0 -7 3 -33 6 -58 7 -51 7 -52 -110 -68 -50 -8 -65 -6 -99 11 -22 12 -35
24 -31 28 5 4 34 15 64 24 30 9 75 30 100 46 50 33 70 38 70 17z m255 -130
l37 -73 -21 -39 c-11 -22 -38 -58 -59 -82 -32 -36 -41 -41 -50 -29 -9 11 -8
21 3 45 24 48 46 167 39 212 -10 62 11 49 51 -34z m-1475 -18 l0 -53 -32 33
-33 33 24 20 c35 29 41 24 41 -33z m2064 15 c11 -70 7 -173 -9 -203 -16 -31
-25 -36 -41 -21 -19 17 -144 60 -215 74 -52 9 -96 11 -148 6 -41 -5 -78 -6
-83 -3 -19 12 -5 35 29 49 21 9 48 25 60 37 l22 21 30 -32 c35 -38 63 -39 113
-5 l37 26 27 -21 c18 -14 41 -21 69 -21 53 0 80 33 71 85 -6 31 0 41 25 44 4
1 9 -16 13 -36z m-1068 2 c88 -44 153 -118 220 -252 44 -89 48 -108 17 -81
-61 52 -169 56 -320 13 -194 -56 -250 -88 -278 -160 -45 -120 57 -196 240
-179 211 20 370 111 382 219 4 27 10 44 17 42 6 -2 24 -37 40 -78 15 -41 34
-87 41 -104 8 -16 23 -61 34 -100 11 -38 31 -107 45 -152 14 -46 28 -104 32
-131 l6 -48 -48 -12 c-74 -19 -192 -89 -248 -146 -66 -68 -110 -162 -109 -237
0 -60 33 -139 77 -187 21 -23 21 -24 1 -38 -57 -42 -181 -42 -223 -1 -21 22
-24 36 -33 168 -30 456 -65 566 -194 614 -58 22 -61 25 -83 81 -24 62 -26 69
-66 259 -40 189 -32 287 32 382 34 51 109 110 171 134 71 28 184 25 247 -6z
m248 -66 c3 -34 6 -92 6 -128 l0 -66 -39 68 c-22 37 -56 88 -77 112 -20 25
-35 47 -33 49 8 7 84 24 110 25 25 1 26 -2 33 -60z m-1234 -81 c0 -15 -2 -28
-5 -28 -3 0 -35 23 -70 52 l-65 52 22 23 22 23 48 -47 c35 -34 48 -55 48 -75z
m90 101 c73 -29 320 -38 423 -17 37 8 67 12 67 9 -1 -21 -65 -72 -100 -80 -52
-12 -90 -37 -90 -60 0 -62 34 -309 45 -332 8 -15 28 -31 44 -37 26 -9 32 -20
56 -99 14 -48 30 -101 35 -117 6 -16 10 -32 10 -36 0 -6 -228 -22 -345 -24
l-40 -1 -26 95 c-15 52 -25 98 -22 103 2 4 13 7 25 7 29 0 139 54 172 85 33
30 33 21 -13 235 -18 80 -36 149 -41 154 -5 5 -60 15 -120 21 -61 7 -116 17
-121 22 -10 10 -26 93 -18 93 2 0 29 -10 59 -21z m-200 -96 c112 -95 128 -115
133 -165 l5 -48 -37 38 c-20 20 -63 55 -96 76 -98 64 -96 62 -78 102 9 19 19
34 23 34 3 0 26 -17 50 -37z m1630 4 c0 -16 -9 -28 -25 -35 -30 -14 -31 -10
-8 29 21 35 33 37 33 6z m2185 -19 c21 -18 58 -46 81 -63 76 -55 149 -112 162
-127 11 -13 8 -23 -17 -59 -36 -53 -128 -145 -137 -137 -3 3 -14 38 -23 76
-33 126 -88 192 -173 207 -23 5 -38 13 -38 22 0 13 88 113 100 113 3 0 23 -15
45 -32z m-3485 -14 c19 -3 38 -8 41 -12 7 -7 41 -155 62 -269 9 -51 8 -64 -4
-79 -15 -19 -149 -84 -173 -84 -16 0 -55 150 -82 318 -8 53 -18 108 -21 121
l-6 23 74 -7 c41 -4 90 -9 109 -11z m280 -1 c-1 -5 -7 -33 -14 -63 -12 -53
-10 -127 9 -252 8 -50 -5 -65 -24 -29 -32 59 -54 334 -28 344 19 8 57 8 57 0z
m823 -41 c47 -49 51 -79 26 -174 l-23 -83 -20 45 c-15 33 -20 70 -22 143 -1
53 1 97 5 97 4 0 19 -13 34 -28z m460 13 c153 -27 209 -49 257 -101 23 -25 50
-64 60 -87 40 -90 51 -259 25 -381 -12 -55 -22 -76 -54 -111 -48 -52 -91 -119
-102 -159 -17 -58 -24 -62 -59 -33 -53 45 -149 69 -290 73 l-125 4 -23 82
c-13 46 -43 146 -68 223 -41 125 -45 147 -41 205 8 92 39 168 89 217 84 82
159 98 331 68z m1046 4 c62 -13 120 -54 161 -114 55 -81 123 -259 149 -392 8
-42 7 -43 -40 -87 -51 -47 -60 -69 -33 -84 13 -7 9 -18 -26 -74 -49 -78 -56
-121 -22 -126 28 -4 28 -8 -8 -61 -17 -24 -30 -48 -30 -53 0 -4 -4 -8 -9 -8
-4 0 -11 22 -14 49 -11 90 -67 170 -171 240 -66 45 -206 101 -291 115 -60 10
-72 16 -83 38 -36 76 -40 242 -8 351 23 77 117 174 191 199 59 19 163 22 234
7z m-2894 -123 c76 -74 86 -96 60 -130 -14 -18 -16 -17 -62 13 -44 30 -49 37
-70 109 -12 42 -23 78 -23 80 -1 15 34 -11 95 -72z m3735 -11 c62 -61 93 -164
94 -320 1 -66 -2 -128 -6 -138 -7 -17 -10 -16 -50 6 -36 20 -43 28 -40 51 6
54 -42 72 -113 42 -37 -16 -45 -13 -45 18 0 30 -28 66 -50 66 -12 0 -26 -12
-35 -30 -9 -16 -17 -30 -20 -30 -2 0 -25 11 -51 25 -26 14 -55 25 -65 25 -22
0 -27 18 -30 105 -2 99 -2 100 27 135 52 61 150 91 282 86 57 -2 65 -5 102
-41z m1295 6 c58 -39 70 -70 69 -176 -3 -166 -43 -707 -54 -718 -4 -5 -43 -17
-86 -28 -141 -36 -301 -143 -350 -234 -21 -40 -29 -43 -37 -15 -8 30 -22 25
-61 -23 -37 -45 -111 -94 -120 -78 -8 12 12 67 40 111 42 64 66 91 119 130 44
33 54 46 59 77 3 21 12 90 21 153 9 63 23 156 30 205 8 50 24 180 35 289 12
110 24 205 27 210 41 69 100 111 176 125 55 11 84 5 132 -28z m-3792 -15 c48
-44 48 -120 0 -176 -32 -39 -64 -55 -167 -87 -100 -31 -243 -35 -293 -9 -61
31 -80 90 -46 143 17 26 162 103 195 103 10 0 35 7 57 16 46 18 118 31 182 33
36 1 52 -4 72 -23z m2924 -145 c18 -20 32 -39 33 -42 0 -4 -22 -9 -50 -11 -32
-3 -69 -17 -105 -39 -102 -61 -148 -122 -169 -220 -10 -46 -16 -59 -21 -46 -4
10 -3 36 4 56 6 21 11 73 11 115 l0 76 68 67 c38 38 81 85 96 105 l28 38 37
-31 c20 -17 50 -48 68 -68z m-4002 -141 c3 -19 18 -73 32 -120 14 -47 26 -89
27 -94 0 -4 -35 -17 -78 -27 -44 -11 -86 -24 -93 -31 -61 -50 -50 259 14 386
43 85 44 85 69 -1 12 -43 25 -94 29 -113z m-140 114 c0 -14 -7 -19 -30 -19
-28 0 -30 2 -33 44 l-3 45 33 -26 c18 -14 33 -34 33 -44z m-41 -54 c29 -11 33
-31 11 -54 -12 -11 -22 -13 -39 -6 -13 5 -27 6 -30 3 -13 -13 -5 19 10 42 19
29 15 28 48 15z m4244 -17 c14 -26 24 -93 15 -93 -4 0 -16 7 -26 15 -29 22
-77 1 -77 -34 0 -15 5 -32 12 -39 15 -15 53 -16 79 -2 15 9 19 7 19 -7 -1 -48
-11 -61 -56 -66 -48 -5 -78 -26 -100 -69 -12 -24 -12 -32 0 -62 8 -19 27 -42
43 -52 15 -10 30 -19 32 -21 6 -4 -69 -196 -85 -218 -15 -20 -15 -20 -35 5
-35 43 -128 247 -140 307 -21 105 20 217 102 279 87 66 198 95 217 57z m-678
-120 c0 -49 5 -51 57 -23 61 33 119 25 86 -12 -16 -18 -16 -20 3 -38 10 -11
39 -30 64 -43 45 -24 90 -76 90 -106 0 -11 -4 -10 -16 7 -17 24 -44 30 -44 8
0 -7 7 -19 16 -27 20 -16 61 -97 85 -166 15 -43 15 -53 4 -53 -8 0 -17 5 -20
10 -8 13 -45 13 -45 1 0 -5 6 -16 13 -23 31 -33 96 -168 81 -168 -3 0 -17 9
-31 20 -35 27 -52 25 -25 -2 32 -35 62 -108 62 -155 0 -35 -10 -58 -58 -131
l-58 -88 -57 58 c-32 32 -86 73 -120 91 l-62 32 -216 0 c-165 0 -220 -3 -232
-13 -25 -21 -35 -6 -29 45 l5 48 -25 -22 c-13 -13 -27 -23 -30 -23 -11 0 12
80 39 134 29 59 26 88 -6 79 -35 -9 -23 29 41 133 46 75 48 92 8 96 -29 3 -29
3 -14 33 8 17 34 57 59 90 25 33 45 64 45 68 0 5 -11 6 -25 3 -73 -18 36 72
127 105 46 17 58 26 52 38 -27 66 -7 68 54 4 42 -44 46 -45 58 -28 8 10 14 23
14 27 0 5 7 20 17 34 21 32 33 16 33 -43z m-3562 20 c3 -22 0 -23 -68 -23
l-70 0 16 25 c15 23 23 26 68 23 44 -3 51 -6 54 -25z m-187 -119 c17 -119 54
-223 105 -291 22 -28 25 -45 29 -157 3 -69 2 -126 -2 -125 -5 0 -29 33 -55 74
-28 44 -68 90 -100 115 -50 40 -53 46 -60 99 -13 96 -21 288 -14 315 7 27 64
60 79 46 4 -4 12 -38 18 -76z m174 46 c0 -14 -48 -33 -107 -43 -38 -6 -38 -5
-38 28 l0 33 73 -2 c52 -2 72 -6 72 -16z m5 -56 c0 -18 -104 -68 -125 -60 -21
8 -19 36 3 36 9 1 40 9 67 20 28 10 51 19 53 19 1 1 2 -6 2 -15z m2630 -25
c205 -57 344 -164 380 -295 11 -37 11 -61 1 -127 -16 -102 -52 -239 -80 -302
-24 -55 -27 -93 -7 -101 9 -3 15 -33 19 -95 8 -107 29 -194 63 -262 14 -27 24
-50 22 -51 -2 -1 -30 -14 -64 -28 l-60 -26 -17 70 c-22 96 -78 204 -138 268
-37 40 -49 59 -45 75 9 36 65 105 94 116 43 17 62 39 62 76 0 67 -56 134 -128
153 l-43 11 47 39 c45 37 48 38 61 21 7 -10 15 -37 19 -60 4 -23 11 -44 15
-47 12 -7 139 88 139 104 0 20 -19 14 -66 -20 -51 -36 -54 -34 -76 36 -12 38
-34 57 -47 39 -7 -11 -83 -63 -92 -63 -4 0 -10 21 -14 46 -8 53 -27 65 -58 36
-19 -18 -86 -52 -102 -52 -3 0 -5 27 -5 59 0 61 -14 86 -34 60 -15 -21 -86
-62 -93 -55 -3 3 -8 37 -11 76 -5 74 -12 82 -46 51 -12 -10 -43 -31 -69 -46
l-48 -27 7 28 c4 16 13 46 21 68 16 48 16 46 -5 46 -13 0 -22 -17 -35 -67 -10
-38 -23 -76 -29 -87 -6 -12 -6 -22 1 -29 6 -6 33 5 82 37 40 25 76 46 79 46
11 0 21 -88 14 -116 -10 -41 21 -41 73 0 25 20 50 36 56 36 5 0 7 -29 6 -64
-2 -36 -1 -67 2 -71 4 -3 30 10 60 30 57 37 87 50 96 41 3 -3 8 -25 10 -49 5
-38 2 -47 -26 -74 -42 -43 -43 -95 -1 -143 16 -19 29 -42 30 -50 0 -9 -16 -42
-36 -73 -28 -44 -40 -57 -53 -51 -47 20 -130 16 -216 -11 -17 -5 -24 3 -42 43
-28 61 -28 64 -3 80 23 14 27 57 8 96 -6 14 -31 35 -55 47 -54 26 -99 20 -137
-20 -23 -24 -26 -34 -21 -65 6 -28 17 -43 50 -66 31 -21 44 -38 48 -62 3 -18
9 -47 12 -65 7 -29 4 -33 -34 -53 -54 -27 -116 -91 -153 -158 l-30 -53 -37 73
c-34 69 -40 75 -116 121 -87 51 -125 87 -125 118 0 14 7 19 26 19 33 0 167 55
219 90 67 46 131 121 149 178 22 66 14 152 -20 219 l-23 47 30 73 c33 78 101
163 153 190 17 9 56 25 86 35 67 22 193 17 300 -13z m1869 -8 c29 -41 58 -111
91 -219 28 -91 28 -96 15 -164 -7 -39 -17 -73 -23 -77 -117 -75 -212 -219
-200 -301 2 -20 10 -26 35 -28 33 -3 68 16 126 67 l27 25 0 -51 c0 -27 -3 -84
-6 -126 l-7 -77 -52 0 c-63 0 -133 -20 -175 -50 -17 -12 -33 -20 -36 -17 -3 3
-12 36 -20 74 -7 37 -32 120 -54 184 l-39 116 29 76 c16 42 39 96 51 119 12
24 41 93 64 153 24 61 59 150 79 198 59 144 61 146 95 98z m-3821 -21 c113
-13 142 -32 188 -124 29 -59 37 -88 41 -153 5 -77 5 -80 -20 -96 -80 -52 -103
-118 -67 -193 21 -43 43 -60 102 -78 21 -6 28 -73 31 -286 l2 -155 -170 -6
c-144 -6 -308 -28 -337 -45 -9 -6 -63 21 -103 52 -56 42 -142 76 -176 69 -69
-15 -63 -95 16 -239 30 -55 54 -101 52 -102 -4 -5 -53 62 -144 194 l-71 105
39 49 c21 27 44 68 50 91 15 55 6 138 -20 188 l-21 39 40 40 c88 88 54 229
-60 248 l-45 8 -3 127 -3 127 33 34 c67 69 142 91 358 105 181 12 196 12 288
1z m-668 -18 c0 -13 -16 -23 -57 -37 -62 -21 -66 -22 -71 -6 -4 11 84 60 111
61 10 0 17 -7 17 -18z m10 -50 c0 -4 -24 -21 -52 -39 -45 -26 -54 -29 -61 -16
-11 18 -5 24 46 45 46 19 67 22 67 10z m-53 -92 c-12 -32 -21 -37 -33 -18 -4
6 3 19 16 30 29 24 30 23 17 -12z m-364 -13 c29 -1 59 1 67 4 11 3 16 -6 18
-40 3 -35 0 -43 -11 -38 -21 8 -126 27 -167 29 -27 2 -35 7 -36 23 -1 32 5 36
42 29 19 -4 59 -7 87 -7z m2233 -1 c77 -16 122 -44 172 -104 99 -119 104 -211
16 -315 -67 -81 -171 -136 -272 -145 l-77 -7 0 -52 c1 -65 18 -84 125 -147 54
-31 88 -59 108 -88 37 -54 70 -159 78 -249 8 -79 6 -80 -79 -83 l-52 -1 -11
100 c-6 55 -12 102 -13 104 0 2 -8 -2 -16 -9 -15 -12 -15 -72 0 -166 7 -38 1
-43 -97 -78 -42 -15 -114 -52 -158 -83 -45 -30 -83 -53 -84 -51 -2 2 -7 41
-13 88 -10 83 -9 86 18 140 40 78 69 166 76 231 5 49 3 59 -16 78 -41 41 -80
28 -201 -68 -51 -40 -72 -47 -104 -35 -28 11 -19 59 17 91 35 31 67 46 135 63
23 6 58 24 76 41 38 33 70 103 64 140 -3 26 -8 26 -71 10 -46 -11 -117 6 -184
45 -51 29 -85 95 -91 175 -4 49 0 66 28 122 17 35 48 80 68 100 46 44 219 137
286 153 68 16 196 16 272 0z m-916 -245 c17 -33 11 -48 -10 -22 -11 13 -20 27
-20 32 0 16 19 9 30 -10z m-889 -23 c6 -13 29 -46 50 -74 37 -49 50 -84 30
-84 -15 0 -111 147 -111 170 0 18 19 10 31 -12z m877 -26 c32 -58 22 -77 -12
-24 -36 58 -43 76 -25 70 8 -2 24 -23 37 -46z m-821 23 c22 -16 48 -76 41 -97
-4 -11 -88 90 -88 105 0 12 25 8 47 -8z m2990 -7 c-49 -133 -58 -169 -47 -183
7 -8 21 -15 31 -15 14 0 19 -7 19 -30 0 -24 -4 -30 -20 -30 -12 0 -31 -6 -43
-14 -12 -8 -32 -17 -45 -21 l-22 -6 26 68 c14 37 35 102 46 143 11 41 21 81
24 88 2 6 11 12 20 12 9 0 14 -6 11 -12z m-2183 -55 c20 -31 35 -63 34 -72 -3
-12 -88 109 -88 125 0 17 23 -5 54 -53z m-835 -52 c27 -41 39 -67 32 -74 -11
-11 -90 108 -91 138 0 24 6 17 59 -64z m825 8 c20 -33 31 -59 24 -57 -14 5
-78 94 -78 109 0 24 21 3 54 -52z m-830 -71 c10 -15 14 -28 9 -28 -9 0 -63 82
-63 96 0 10 30 -27 54 -68z m4129 -105 c38 -111 56 -172 67 -231 l11 -64 -60
-59 c-32 -32 -72 -79 -88 -104 -50 -80 -56 -66 -51 123 4 137 8 177 26 225 26
71 65 156 73 157 3 0 13 -21 22 -47z m-867 16 c11 -6 26 -25 32 -43 35 -96
-17 -231 -124 -320 -53 -45 -61 -42 -104 43 -40 80 -60 155 -60 228 l0 62 68
20 c110 33 138 34 188 10z m-286 -93 c0 -69 24 -155 66 -241 l45 -90 -26 -22
c-34 -30 -39 -29 -69 10 -38 51 -68 163 -69 268 -2 78 1 92 17 104 25 19 36
10 36 -29z m489 23 c31 -29 43 -65 35 -106 -8 -45 -52 -73 -114 -73 -65 0 -74
9 -61 56 6 22 11 58 11 82 0 35 4 44 23 52 39 15 82 11 106 -11z m-2192 -4
c21 -9 66 -16 100 -16 35 -1 63 -5 63 -10 0 -6 -9 -27 -20 -48 -20 -40 -33
-47 -155 -87 -72 -23 -120 -67 -129 -119 l-7 -38 -91 7 c-50 3 -92 7 -94 9 -1
1 -5 67 -9 146 -6 137 -6 143 12 136 77 -32 177 -26 253 15 43 23 34 23 77 5z
m2377 -196 c95 -75 64 -209 -50 -209 -42 0 -51 4 -90 44 -38 37 -44 49 -44 85
0 34 6 49 29 72 25 24 38 29 79 29 35 0 57 -6 76 -21z m-204 -3 c0 -3 -5 -17
-10 -32 l-11 -27 -25 24 -26 24 29 6 c40 9 43 10 43 5z m-77 -56 c78 -68 67
-200 -20 -236 -43 -19 -123 -18 -150 1 -29 21 -46 81 -33 124 5 17 33 57 61
87 63 64 91 69 142 24z m-1905 3 c18 -34 -15 -168 -62 -251 l-13 -24 -12 31
c-7 16 -33 56 -57 87 -24 31 -44 58 -44 60 0 1 30 28 66 58 68 58 106 70 122
39z m-1213 -57 c68 -42 90 -66 63 -66 -22 0 -84 -57 -98 -90 -7 -16 -16 -30
-20 -30 -12 0 -90 177 -90 204 0 42 59 35 145 -18z m4505 -85 c45 -31 62 -78
56 -153 -6 -79 -19 -103 -68 -129 -122 -63 -258 50 -219 182 15 51 65 107 105
118 40 12 94 4 126 -18z m-508 -28 c29 -26 58 -87 58 -124 0 -71 -80 -139
-163 -139 -38 0 -91 30 -107 61 -32 58 15 179 83 213 39 20 101 15 129 -11z
m-750 -162 c34 -39 37 -86 7 -148 -16 -34 -28 -45 -59 -54 -96 -29 -192 90
-149 185 17 37 65 57 123 53 40 -4 55 -10 78 -36z m-1409 -57 c156 -43 249
-125 281 -251 37 -142 16 -221 -87 -321 -89 -87 -120 -111 -178 -140 -42 -21
-47 -27 -46 -57 1 -40 -17 -65 -49 -65 -24 0 -45 26 -37 47 6 17 -15 53 -32
53 -8 0 -16 -6 -17 -12 -5 -49 -17 -75 -34 -82 -25 -10 -34 2 -34 44 0 26 -5
40 -16 44 -23 9 -44 -12 -44 -43 0 -35 -14 -54 -36 -49 -16 3 -19 13 -20 56 0
28 -3 55 -7 58 -3 3 -33 8 -66 11 -60 6 -62 7 -129 77 -37 39 -79 96 -94 126
-25 49 -28 67 -28 151 0 111 18 176 61 217 44 41 148 101 206 118 174 51 273
55 406 18z m773 -196 c18 -110 18 -223 -1 -285 -18 -60 -54 -117 -78 -121 -15
-3 -16 5 -11 75 3 43 17 132 29 198 13 66 27 144 31 173 4 29 9 50 12 48 2 -3
11 -43 18 -88z"/>
<path d="M2840 7808 c0 -23 18 -41 34 -35 9 4 16 16 16 27 0 15 -7 20 -25 20
-14 0 -25 -6 -25 -12z"/>
<path d="M3110 7805 c-13 -16 -6 -35 15 -35 18 0 26 15 19 34 -8 20 -18 20
-34 1z"/>
<path d="M2980 7742 c0 -5 -20 -38 -45 -75 -50 -75 -51 -77 -31 -77 7 0 28 26
47 58 19 31 41 57 49 57 13 0 31 -24 87 -112 10 -17 12 -17 18 -1 5 12 -10 39
-46 87 -46 62 -79 88 -79 63z"/>
<path d="M1435 7796 c-13 -19 -13 -28 -4 -50 16 -33 37 -33 50 0 19 53 -18 93
-46 50z"/>
<path d="M1597 7803 c-15 -14 -7 -63 11 -72 23 -12 42 3 42 34 0 33 -34 58
-53 38z"/>
<path d="M3812 7794 l-35 -35 -21 26 c-15 19 -29 26 -46 23 -55 -7 -25 -130
44 -183 20 -15 38 -26 39 -24 1 2 12 18 23 34 33 47 62 109 65 136 6 70 -15
77 -69 23z"/>
<path d="M922 7819 c-23 -7 -32 -15 -30 -27 3 -14 16 -18 70 -20 37 -2 82 1
100 6 39 10 49 37 16 46 -33 8 -118 6 -156 -5z"/>
<path d="M5154 7741 c-131 -33 -203 -127 -204 -266 0 -133 93 -226 256 -256
140 -26 245 55 284 219 29 125 -29 248 -135 285 -51 18 -161 28 -201 18z m201
-48 c22 -12 54 -35 70 -53 28 -29 30 -38 34 -117 4 -99 -7 -143 -49 -201 -41
-56 -94 -82 -170 -82 -107 0 -227 77 -250 159 -24 86 -2 190 53 250 12 13 45
35 72 48 43 20 61 23 125 20 50 -2 88 -11 115 -24z"/>
<path d="M5186 7564 c-40 -39 -25 -115 23 -122 31 -5 71 34 71 68 0 29 -37 70
-62 70 -9 0 -24 -7 -32 -16z m52 -60 c-4 -23 -26 -30 -34 -10 -8 20 15 51 29
37 5 -5 7 -17 5 -27z"/>
<path d="M5165 7125 c-5 -2 -22 -6 -37 -9 -15 -3 -29 -15 -33 -25 -7 -22 40
-132 73 -171 26 -31 39 -20 50 41 l8 44 45 -3 c24 -2 59 0 77 3 30 6 32 8 32
50 0 66 -15 75 -118 74 -48 0 -91 -2 -97 -4z m28 -88 c-2 -80 -11 -89 -38 -37
-13 25 -24 55 -25 68 0 20 4 23 33 20 32 -3 32 -4 30 -51z"/>
<path d="M2207 7550 c-6 -22 6 -110 18 -143 5 -12 16 -17 34 -15 34 4 38 42
14 118 -14 41 -23 56 -39 58 -15 2 -23 -4 -27 -18z"/>
<path d="M1675 7439 c-7 -22 -1 -73 16 -126 9 -28 15 -33 41 -33 l31 0 -6 63
c-8 82 -23 117 -53 117 -14 0 -25 -8 -29 -21z"/>
<path d="M1415 7174 c-23 -23 -15 -56 17 -74 33 -18 61 -6 66 28 8 52 -46 82
-83 46z m45 -44 c0 -5 -4 -10 -10 -10 -5 0 -10 5 -10 10 0 6 5 10 10 10 6 0
10 -4 10 -10z"/>
<path d="M892 7088 c-16 -16 -15 -63 2 -77 8 -7 30 -11 48 -9 29 3 33 7 36 36
2 18 -2 40 -9 48 -14 17 -61 18 -77 2z m48 -58 c0 -5 -4 -10 -10 -10 -5 0 -10
5 -10 10 0 6 5 10 10 10 6 0 10 -4 10 -10z"/>
<path d="M280 7429 c0 -5 5 -7 10 -4 6 3 10 8 10 11 0 2 -4 4 -10 4 -5 0 -10
-5 -10 -11z"/>
<path d="M4072 7130 c-17 -28 -15 -48 7 -55 43 -13 74 30 42 59 -23 21 -34 20
-49 -4z"/>
<path d="M4007 6964 c-39 -60 -48 -114 -24 -145 32 -41 101 -53 154 -26 25 13
83 84 83 102 0 3 -28 26 -62 51 -35 25 -67 52 -71 60 -16 28 -43 14 -80 -42z
m91 -90 c12 -14 22 -36 22 -50 0 -22 -4 -24 -42 -24 -24 0 -49 7 -60 17 -21
18 -25 79 -5 87 22 9 62 -4 85 -30z"/>
<path d="M4313 6994 c-8 -21 9 -48 31 -52 37 -8 64 49 30 62 -28 11 -54 6 -61
-10z"/>
<path d="M3527 7086 c-3 -8 1 -22 8 -33 13 -17 15 -17 31 -1 9 9 14 24 11 32
-8 20 -43 21 -50 2z"/>
<path d="M3244 7005 c-8 -19 3 -35 26 -35 22 0 33 23 17 39 -15 15 -37 14 -43
-4z"/>
<path d="M3427 6983 c-11 -10 -8 -81 3 -88 6 -3 10 -2 10 4 0 5 12 11 27 13
34 4 42 32 17 59 -17 19 -45 25 -57 12z"/>
<path d="M4872 7038 c-13 -13 -16 -66 -4 -85 4 -7 19 -14 32 -15 35 -4 56 41
38 80 -14 30 -46 40 -66 20z"/>
<path d="M1197 6872 c-24 -26 -21 -59 7 -77 19 -13 29 -14 45 -5 32 16 45 48
29 68 -29 38 -56 42 -81 14z"/>
<path d="M1496 6788 c-16 -22 -15 -24 5 -40 42 -35 94 -14 87 34 -2 19 -10 24
-40 26 -28 2 -40 -2 -52 -20z"/>
<path d="M2722 6958 c-18 -18 -14 -46 7 -58 11 -5 22 -10 25 -10 13 0 36 49
30 64 -7 19 -45 21 -62 4z"/>
<path d="M2920 6950 c-14 -26 3 -60 30 -60 27 0 44 34 30 60 -6 11 -19 20 -30
20 -11 0 -24 -9 -30 -20z"/>
<path d="M2705 6800 c-16 -27 54 -84 120 -98 33 -6 40 -13 52 -47 28 -83 112
-114 141 -52 12 25 11 36 -9 93 -24 67 -48 100 -57 76 -7 -21 -58 -42 -102
-42 -46 0 -97 25 -105 51 -7 20 -32 32 -40 19z m274 -89 c20 -36 24 -96 8
-109 -22 -18 -63 3 -82 43 -19 41 -19 51 0 59 9 3 21 -4 31 -19 30 -47 39 -28
17 33 -8 19 15 14 26 -7z"/>
<path d="M919 6687 c-36 -24 -49 -55 -28 -68 17 -10 62 14 88 47 37 47 -1 61
-60 21z m41 -6 c0 -5 -7 -12 -16 -15 -24 -9 -28 -7 -14 9 14 17 30 20 30 6z"/>
<path d="M2731 6424 c-26 -33 -36 -95 -35 -229 1 -178 44 -305 104 -305 35 0
79 49 96 107 15 51 15 65 -1 187 -23 184 -29 207 -65 239 -38 34 -72 35 -99 1z
m69 -19 c10 -12 8 -23 -9 -57 -11 -24 -25 -77 -31 -119 -9 -65 -8 -87 9 -155
10 -43 24 -92 30 -107 15 -38 14 -47 -5 -47 -22 0 -41 55 -60 176 -14 88 -15
122 -6 189 16 120 39 159 72 120z m70 -254 c21 -41 2 -197 -24 -188 -17 6 -27
59 -21 112 12 96 23 116 45 76z"/>
<path d="M2244 6402 c-50 -40 -73 -140 -74 -315 0 -103 20 -184 57 -227 20
-25 32 -30 68 -30 56 0 88 28 109 93 20 60 20 111 1 235 -27 173 -35 200 -65
232 -32 34 -64 38 -96 12z m70 -31 c14 -16 15 -20 2 -30 -46 -38 -85 -253 -67
-371 6 -36 13 -76 17 -90 7 -23 6 -24 -11 -10 -75 62 -78 400 -4 494 24 31 40
33 63 7z m73 -362 c-3 -31 -13 -71 -22 -90 l-18 -34 -9 25 c-5 14 -8 58 -6 98
3 59 7 77 23 88 17 13 20 12 28 -8 5 -13 7 -48 4 -79z"/>
<path d="M4352 6108 c-17 -17 -15 -89 4 -116 33 -48 95 -16 87 46 -8 62 -60
101 -91 70z m22 -71 c4 -19 3 -26 -4 -22 -5 3 -10 18 -10 32 0 32 5 28 14 -10z"/>
<path d="M4132 6088 c-17 -17 -15 -110 3 -134 19 -26 19 -33 -3 -27 -22 5 -72
-13 -72 -26 0 -18 40 -33 71 -26 43 10 81 93 70 152 -12 65 -40 90 -69 61z
m15 -90 c-3 -8 -6 -5 -6 6 -1 11 2 17 5 13 3 -3 4 -12 1 -19z m3 -98 c0 -5
-16 -10 -35 -10 -19 0 -35 5 -35 10 0 6 16 10 35 10 19 0 35 -4 35 -10z"/>
<path d="M4430 5958 c-19 -5 -41 -16 -49 -23 -12 -12 -10 -16 15 -27 16 -6 30
-13 32 -14 2 -1 -1 -12 -7 -23 -27 -49 -133 -71 -227 -47 -67 17 -79 14 -35
-9 22 -11 39 -32 55 -69 34 -77 92 -117 150 -102 43 11 56 33 56 94 0 83 17
131 58 169 20 18 34 34 31 37 -19 17 -48 22 -79 14z m52 -23 c3 -17 -49 -30
-74 -18 l-23 11 25 11 c30 12 70 10 72 -4z m-84 -228 c-4 -43 -37 -60 -86 -43
-45 16 -61 38 -43 60 19 23 71 34 104 23 24 -8 28 -14 25 -40z"/>
<path d="M3496 6179 c-23 -27 -26 -40 -26 -105 0 -67 3 -77 28 -105 24 -27 36
-32 76 -33 58 -1 76 18 76 81 0 67 -20 130 -50 163 -37 39 -71 39 -104 -1z
m102 -59 c34 -67 28 -160 -11 -160 -5 0 -6 17 -2 38 6 39 -5 74 -38 124 -10
15 -16 32 -12 38 13 22 40 4 63 -40z"/>
<path d="M1655 5904 c-20 -20 -16 -53 8 -68 39 -24 79 44 41 71 -23 17 -29 16
-49 -3z m31 -41 c-10 -10 -19 5 -10 18 6 11 8 11 12 0 2 -7 1 -15 -2 -18z"/>
<path d="M1692 5738 c-26 -53 -89 -104 -167 -134 -50 -19 -50 -19 -18 -22 25
-3 40 -13 65 -48 75 -105 214 -152 294 -99 18 12 24 24 24 53 0 40 -23 81 -98
175 -21 26 -47 65 -58 85 l-19 38 -23 -48z m155 -187 c60 -89 -7 -147 -122
-104 -60 22 -70 50 -33 90 55 60 120 66 155 14z"/>
<path d="M1347 5647 c-8 -20 3 -65 18 -71 23 -9 56 24 53 52 -2 22 -9 28 -34
30 -20 2 -33 -2 -37 -11z"/>
<path d="M2871 5606 c-10 -11 -8 -24 9 -57 l22 -42 -21 -28 c-26 -35 -26 -41
0 -57 18 -11 24 -11 41 5 17 15 21 16 28 3 27 -46 37 -55 54 -41 21 17 20 42
-1 79 -17 29 -16 30 10 61 32 39 33 43 7 66 -20 18 -21 18 -46 -6 l-26 -24
-22 28 c-24 30 -38 34 -55 13z"/>
<path d="M2520 5533 l-21 -27 -15 22 c-16 23 -48 29 -59 12 -4 -6 3 -26 15
-45 l22 -35 -33 -41 -32 -41 24 -19 c24 -18 24 -17 52 9 l29 27 24 -28 c20
-24 27 -27 39 -17 20 17 19 25 -9 67 l-25 36 25 36 c29 43 29 47 5 61 -16 8
-23 5 -41 -17z"/>
<path d="M3049 5313 c-8 -2 -21 -19 -28 -38 -14 -40 -30 -44 -56 -15 -29 32
-61 25 -91 -20 -32 -48 -47 -50 -71 -10 -25 43 -64 41 -92 -4 -34 -55 -60 -55
-78 -2 -5 16 -19 36 -30 43 -20 13 -25 11 -61 -21 -48 -44 -70 -46 -85 -6 -16
42 -42 40 -33 -2 15 -76 66 -88 122 -28 20 22 40 37 45 35 4 -3 10 -18 14 -34
14 -67 66 -76 119 -22 l39 40 32 -35 c46 -48 50 -47 114 36 l19 25 24 -22 c13
-13 33 -23 44 -23 22 0 54 30 74 69 13 25 4 40 -21 34z"/>
<path d="M4943 5453 c-26 -91 4 -208 51 -201 33 5 52 76 36 134 -24 84 -72
121 -87 67z"/>
<path d="M4740 5434 c-41 -48 -9 -196 44 -210 43 -10 49 2 42 78 -7 75 -25
122 -55 137 -14 8 -22 7 -31 -5z"/>
<path d="M5154 5280 c-52 -21 -72 -101 -34 -135 11 -10 37 -21 59 -25 35 -6
42 -4 54 14 37 56 24 128 -25 145 -17 6 -31 11 -32 10 -1 0 -11 -4 -22 -9z
m62 -56 c3 -13 3 -35 0 -49 -5 -20 -13 -25 -36 -25 -49 0 -61 47 -23 91 19 22
52 13 59 -17z"/>
<path d="M4646 5198 c-30 -11 -69 -79 -59 -105 7 -19 56 -43 88 -43 59 0 86
81 44 134 -22 28 -30 30 -73 14z m57 -50 c8 -28 -9 -68 -28 -68 -9 0 -24 4
-34 10 -23 12 -17 55 11 75 25 17 44 10 51 -17z"/>
<path d="M5030 5141 c-30 -57 -151 -82 -203 -41 -32 25 -60 26 -55 3 4 -22 82
-63 118 -63 79 0 180 57 180 102 0 24 -27 23 -40 -1z"/>
<path d="M3660 5390 c-13 -8 -11 -11 8 -16 12 -4 22 -11 22 -16 0 -5 -10 -6
-21 -3 -25 8 -23 -12 3 -28 23 -15 48 -1 48 26 0 39 -29 57 -60 37z"/>
<path d="M3466 5375 c-20 -21 -20 -39 0 -59 18 -19 20 -19 45 -6 26 14 24 30
-3 31 l-23 0 23 11 c12 6 21 16 19 22 -6 18 -43 18 -61 1z"/>
<path d="M3644 5255 c-7 -30 -34 -33 -41 -5 -7 26 -21 26 -25 -2 -4 -31 -26
-34 -38 -4 -16 42 -40 23 -40 -33 0 -49 15 -88 40 -104 20 -12 124 9 145 29
15 16 21 97 9 128 -10 25 -43 19 -50 -9z"/>
<path d="M1657 5183 c-2 -5 -1 -66 2 -138 6 -124 7 -130 28 -133 12 -2 31 2
43 8 20 11 21 18 18 130 -2 113 -4 119 -26 129 -27 13 -59 14 -65 4z"/>
<path d="M1039 5123 c-5 -43 5 -221 13 -230 6 -7 26 -13 44 -13 l34 0 0 125 0
125 -45 0 c-25 0 -45 -3 -46 -7z"/>
<path d="M1790 4845 c0 -24 -3 -25 -54 -25 -46 0 -56 3 -61 21 -8 24 -30 20
-30 -6 0 -14 -13 -22 -50 -32 -27 -7 -62 -13 -77 -13 -23 0 -28 4 -28 25 0 16
-6 25 -15 25 -9 0 -15 -9 -15 -24 0 -22 -7 -26 -55 -37 -30 -7 -58 -12 -62
-13 -4 -1 -10 12 -13 28 -8 44 -30 45 -30 2 0 -41 -2 -42 -82 -50 -57 -6 -58
-6 -58 19 0 16 -6 25 -16 25 -10 0 -14 -7 -12 -22 3 -20 -3 -23 -52 -31 -75
-11 -86 -15 -73 -28 8 -8 28 -7 68 2 65 14 75 8 75 -49 0 -23 4 -32 13 -29 7
2 12 21 12 43 0 38 1 39 45 46 87 13 89 12 96 -32 4 -25 12 -40 21 -40 11 0
13 9 8 44 -8 51 -4 55 65 63 53 6 56 4 63 -47 5 -35 22 -26 23 12 0 36 8 42
85 58 66 15 79 10 79 -31 0 -20 5 -29 16 -29 13 0 15 7 11 35 -5 28 -2 35 13
40 26 8 90 -5 91 -19 1 -6 2 -18 3 -26 0 -8 8 -15 16 -15 11 0 14 9 12 31 -3
28 1 32 28 37 41 9 41 35 -1 29 -24 -4 -31 0 -36 17 -7 29 -23 26 -23 -4z"/>
<path d="M3355 5042 c-43 -20 -91 -70 -106 -110 -12 -31 3 -88 32 -118 29 -31
65 -31 155 -1 82 28 114 65 114 131 0 64 -41 107 -105 113 -35 2 -62 -2 -90
-15z m151 -37 c18 -14 17 -15 -17 -9 -30 5 -39 2 -47 -12 -6 -11 -14 -16 -18
-11 -10 10 26 47 46 47 9 0 25 -7 36 -15z m-151 -55 c4 -6 -5 -10 -20 -10 -18
0 -29 -6 -32 -20 -6 -23 -23 -27 -23 -6 0 33 59 62 75 36z m135 -29 c-25 -48
-103 -67 -144 -36 -16 12 -12 13 37 8 52 -5 58 -4 79 20 27 31 43 35 28 8z"/>
<path d="M5596 4925 c-22 -8 -53 -27 -68 -43 -26 -26 -29 -33 -22 -68 15 -84
135 -165 269 -180 l55 -7 15 36 c25 60 20 127 -15 179 -37 55 -56 72 -99 87
-44 14 -87 13 -135 -4z m7 -55 c-8 -17 -15 -54 -15 -81 1 -51 1 -51 -20 -33
-11 11 -27 32 -35 48 -15 29 -15 31 21 63 48 44 70 45 49 3z m161 4 c23 -23
20 -51 -8 -69 -50 -33 -89 22 -46 65 24 24 34 25 54 4z m71 -141 c-8 -60 -22
-76 -63 -69 -21 3 -45 6 -54 6 -10 0 -18 5 -18 10 0 6 12 10 26 10 30 0 94 60
94 88 0 15 2 15 10 2 5 -8 7 -29 5 -47z m-147 30 c5 -17 -26 -29 -40 -15 -6 6
-7 15 -3 22 9 14 37 9 43 -7z"/>
<path d="M5460 4780 c0 -57 114 -161 208 -190 66 -21 152 -27 152 -11 0 10
-35 21 -71 21 -62 0 -132 34 -195 93 -35 32 -66 67 -69 78 -7 19 -25 27 -25 9z"/>
<path d="M798 4749 c-27 -15 -23 -54 7 -67 14 -7 32 -12 40 -12 16 0 29 38 23
67 -4 21 -44 28 -70 12z"/>
<path d="M469 4726 c-15 -33 4 -58 39 -54 55 7 54 70 -1 76 -21 3 -30 -3 -38
-22z"/>
<path d="M755 4526 c-16 -7 -38 -22 -48 -33 -29 -33 6 -38 40 -7 34 32 67 28
71 -7 2 -19 -5 -33 -28 -53 -36 -30 -31 -50 10 -41 39 8 50 -13 19 -37 -18
-16 -32 -18 -66 -13 -34 5 -43 3 -43 -9 0 -19 68 -30 105 -16 15 6 34 18 41
28 18 23 17 61 0 68 -11 4 -13 18 -9 58 5 49 4 52 -21 64 -33 15 -33 15 -71
-2z"/>
<path d="M3876 4413 l-49 -54 -13 29 c-17 42 -25 43 -62 12 l-33 -27 27 -52
c14 -29 32 -55 39 -57 22 -9 175 110 175 135 0 9 -8 28 -18 42 l-17 26 -49
-54z"/>
<path d="M3565 4363 c-16 -8 -31 -17 -33 -18 -2 -2 4 -15 14 -29 9 -15 15 -28
13 -30 -2 -2 -58 -10 -124 -16 -66 -7 -123 -17 -127 -23 -3 -6 -1 -21 5 -35
10 -22 15 -24 57 -17 25 4 95 10 155 15 61 4 122 13 138 19 27 10 27 12 14 43
-49 115 -56 121 -112 91z"/>
<path d="M2240 4307 c-26 -13 -70 -88 -70 -119 0 -10 20 -38 45 -61 25 -24 45
-49 45 -55 0 -41 84 -56 126 -23 30 23 106 17 146 -12 20 -15 36 -18 64 -14
37 6 74 31 74 51 0 6 18 19 40 28 39 16 40 18 40 65 0 56 -9 93 -21 93 -5 0
-6 -24 -3 -53 8 -65 -9 -87 -63 -87 -29 0 -44 8 -75 41 -22 23 -40 40 -41 38
-2 -2 -9 -24 -17 -49 -32 -98 -119 -84 -155 25 -6 18 -8 17 -31 -13 -21 -26
-33 -32 -64 -32 -44 0 -75 23 -84 62 -5 21 1 35 24 62 17 18 41 37 55 40 14 4
25 11 25 16 0 14 -30 12 -60 -3z m340 -218 c0 -5 -9 -9 -20 -9 -19 0 -27 20
-13 33 7 8 33 -11 33 -24z m-256 3 c2 -4 1 -14 -4 -22 -7 -11 -11 -11 -24 -1
-9 7 -13 17 -10 22 7 11 31 12 38 1z"/>
<path d="M2205 3916 c-51 -51 -41 -117 21 -145 20 -8 35 -25 43 -47 7 -19 24
-42 38 -51 24 -16 26 -16 40 3 7 10 17 30 20 44 8 34 23 51 37 43 6 -4 28 -10
50 -13 33 -4 40 -10 50 -39 25 -75 69 -61 112 37 13 29 30 52 39 52 8 0 19 9
25 19 13 25 13 84 0 76 -5 -3 -10 -16 -10 -29 0 -48 -56 -62 -97 -24 -20 19
-23 19 -23 4 0 -32 -46 -66 -90 -66 -46 0 -90 34 -90 70 0 26 -17 26 -25 0 -9
-27 -53 -60 -81 -60 -31 0 -64 33 -64 64 0 14 12 38 26 55 30 37 14 42 -21 7z
m385 -120 c9 -12 7 -24 -9 -60 -22 -50 -35 -57 -51 -26 -11 21 -5 60 10 60 4
0 10 9 13 20 6 24 20 26 37 6z m-236 -18 c-4 -13 -8 -32 -9 -43 -1 -11 -3 -23
-4 -27 -2 -16 -31 -7 -41 11 -16 31 -12 45 18 63 36 23 45 22 36 -4z"/>
<path d="M4041 4176 c-17 -30 -1 -63 34 -72 35 -9 53 1 61 31 14 56 -69 91
-95 41z"/>
<path d="M4182 3768 c-5 -7 -13 -23 -16 -35 -13 -41 -32 -47 -71 -23 -44 27
-61 21 -82 -27 -8 -21 -16 -39 -18 -41 -1 -2 -21 6 -43 18 -51 27 -87 19 -101
-21 l-10 -30 -29 21 c-36 27 -57 19 -82 -31 -26 -49 -33 -53 -71 -34 -26 14
-34 15 -44 3 -18 -18 -29 -104 -15 -113 16 -10 22 -1 30 42 6 32 8 35 15 18
36 -93 55 -125 79 -131 54 -13 67 28 45 139 -9 45 -9 60 1 72 12 14 17 12 46
-16 19 -18 36 -31 38 -28 2 2 11 21 19 42 20 47 39 55 73 28 37 -29 62 -26 82
10 35 64 40 67 61 42 11 -13 26 -23 34 -23 9 0 20 -15 27 -34 6 -18 20 -42 31
-52 19 -17 23 -17 47 -3 22 12 28 23 32 64 5 47 7 50 34 50 28 1 56 26 56 53
0 10 -7 8 -26 -7 -23 -18 -54 -19 -54 -1 0 13 -49 60 -63 60 -8 0 -19 -6 -25
-12z m54 -112 c-7 -61 -13 -67 -37 -37 -23 28 -24 41 -3 89 15 36 16 36 30 17
11 -14 14 -34 10 -69z m-484 -194 c1 -23 -1 -45 -5 -48 -9 -10 -45 15 -51 36
-3 11 -8 29 -11 39 -5 16 0 20 22 23 38 5 43 -1 45 -50z"/>
<path d="M3740 4118 c-50 -55 13 -128 81 -93 22 12 29 22 29 45 0 61 -69 92
-110 48z m55 -48 c3 -5 1 -10 -4 -10 -6 0 -11 5 -11 10 0 6 2 10 4 10 3 0 8
-4 11 -10z"/>
<path d="M3406 3979 c-21 -30 -20 -42 2 -62 36 -33 92 -16 92 28 0 30 -13 44
-47 51 -25 5 -34 2 -47 -17z"/>
<path d="M1280 3969 c0 -5 5 -7 10 -4 6 3 10 8 10 11 0 2 -4 4 -10 4 -5 0 -10
-5 -10 -11z"/>
<path d="M1200 3940 c0 -5 5 -10 10 -10 6 0 10 5 10 10 0 6 -4 10 -10 10 -5 0
-10 -4 -10 -10z"/>
<path d="M1250 3780 c0 -5 5 -10 10 -10 6 0 10 5 10 10 0 6 -4 10 -10 10 -5 0
-10 -4 -10 -10z"/>
<path d="M1673 3720 c-24 -10 -37 -41 -28 -69 7 -23 55 -42 85 -34 30 8 51 53
37 78 -19 36 -48 43 -94 25z m55 -32 c7 -7 12 -17 12 -24 0 -19 -32 -26 -48
-10 -13 12 -13 18 -2 30 15 19 22 20 38 4z"/>
<path d="M1350 3659 l-115 -18 95 5 c134 8 143 9 148 22 2 7 0 11 -5 11 -4 -1
-60 -10 -123 -20z"/>
<path d="M1375 3600 c-16 -4 -47 -8 -67 -9 -21 0 -38 -6 -38 -12 0 -8 14 -10
43 -5 23 3 70 9 105 12 34 4 62 11 62 15 0 11 -63 10 -105 -1z"/>
<path d="M922 3563 c-55 -11 -61 -103 -7 -123 54 -20 105 32 85 85 -8 20 -41
48 -52 44 -2 -1 -13 -4 -26 -6z m43 -54 c8 -25 -6 -42 -31 -37 -23 4 -31 37
-12 49 22 14 36 10 43 -12z"/>
<path d="M1353 3537 c-35 -5 -63 -14 -63 -20 0 -6 15 -7 38 -3 20 4 67 9 105
13 37 3 67 10 67 14 0 11 -66 9 -147 -4z"/>
<path d="M1373 3467 c-35 -5 -63 -14 -63 -20 0 -5 14 -7 33 -3 17 3 62 8 100
12 37 4 67 11 67 15 0 11 -55 9 -137 -4z"/>
<path d="M3272 3808 c-18 -18 -15 -36 8 -48 42 -22 90 21 54 47 -22 16 -46 17
-62 1z"/>
<path d="M2998 3733 c-34 -40 -26 -73 17 -73 44 0 63 60 26 80 -25 13 -25 13
-43 -7z"/>
<path d="M3435 3585 c-5 -1 -30 -8 -55 -16 -25 -7 -98 -32 -163 -56 -65 -24
-126 -43 -137 -43 -23 0 -36 -18 -22 -32 7 -7 29 -3 69 12 132 49 202 72 268
90 41 10 70 23 70 31 0 13 -13 19 -30 14z"/>
<path d="M4292 3433 c-30 -12 -82 -139 -82 -201 0 -85 35 -105 86 -49 51 54
73 136 57 212 -9 40 -28 52 -61 38z"/>
<path d="M5021 3286 c-30 -32 -25 -68 12 -80 23 -8 31 -6 48 11 24 24 28 71 8
84 -23 15 -45 10 -68 -15z"/>
<path d="M2225 2920 c-9 -15 3 -30 26 -30 14 0 19 -7 19 -25 0 -22 -3 -24 -30
-18 -16 3 -30 1 -30 -3 0 -5 26 -15 58 -21 31 -7 67 -15 80 -19 13 -4 22 -2
22 5 0 6 -6 11 -12 11 -24 0 -39 16 -32 34 5 12 16 16 43 14 48 -4 49 23 1 38
-55 18 -138 26 -145 14z"/>
<path d="M2625 2840 c-4 -6 7 -15 25 -21 24 -9 30 -17 28 -33 -2 -16 -9 -20
-30 -18 -50 5 -29 -15 38 -37 67 -22 94 -20 62 3 -11 8 -15 20 -11 35 5 22 17
23 63 8 3 -1 7 3 9 8 11 26 -169 80 -184 55z"/>
<path d="M2241 2669 c-26 -42 -26 -54 -2 -72 16 -10 21 -27 23 -82 2 -53 7
-70 21 -79 15 -9 22 -7 37 12 10 12 20 27 22 34 3 8 23 7 78 -3 70 -14 74 -16
82 -46 5 -18 18 -39 30 -47 20 -14 24 -14 39 0 9 8 27 39 38 67 12 29 29 65
38 81 20 36 33 95 23 101 -4 3 -10 -8 -13 -23 -3 -15 -12 -36 -20 -47 -15 -19
-16 -19 -36 -1 -11 10 -21 27 -23 39 -5 34 -26 31 -42 -7 -8 -20 -19 -36 -24
-36 -15 0 -30 22 -34 49 -5 37 -23 36 -47 -4 -29 -50 -55 -44 -59 13 -2 33 -7
42 -21 42 -10 0 -24 -6 -30 -14 -31 -38 -82 -14 -59 28 18 33 -1 29 -21 -5z
m99 -93 c0 -42 -36 -130 -50 -121 -5 3 -10 35 -10 70 0 50 4 66 18 74 31 19
42 12 42 -23z m248 -39 c18 -19 20 -29 13 -54 -28 -96 -81 -100 -66 -4 15 92
18 95 53 58z"/>
<path d="M3561 2916 c-19 -23 3 -56 37 -56 32 0 52 16 52 41 0 30 -68 41 -89
15z"/>
<path d="M3196 2828 c-11 -15 -12 -26 -5 -40 12 -22 18 -22 47 -2 26 18 29 49
6 58 -25 10 -32 7 -48 -16z"/>
<path d="M3630 2789 c-25 -10 -88 -30 -140 -45 -83 -23 -118 -31 -205 -49 -11
-2 -31 -4 -44 -4 -21 -1 -23 -4 -16 -38 9 -52 53 -148 77 -170 19 -17 21 -17
39 6 11 14 19 39 19 61 l0 38 58 7 c31 4 82 13 112 21 86 22 105 19 129 -20
25 -40 45 -50 73 -35 18 10 20 17 14 58 -9 70 -48 191 -60 190 -6 -1 -31 -9
-56 -20z m48 -36 c5 -10 17 -49 27 -86 14 -51 15 -71 7 -79 -9 -9 -20 7 -47
65 -38 82 -42 103 -22 110 21 9 26 8 35 -10z m-354 -110 c9 -58 7 -133 -4
-133 -12 0 -27 29 -51 98 -21 60 -16 72 27 72 17 0 23 -8 28 -37z"/>
<path d="M4314 2865 c-4 -10 1 -25 14 -38 18 -17 23 -18 37 -7 9 7 15 23 13
34 -4 27 -55 36 -64 11z"/>
<path d="M4050 2835 c-7 -8 -10 -25 -6 -40 11 -45 56 -24 56 27 0 32 -28 39
-50 13z"/>
<path d="M4400 2735 c0 -37 -10 -44 -30 -20 -18 21 -40 19 -40 -5 0 -27 -24
-25 -47 3 -31 40 -41 40 -59 2 l-17 -36 -31 30 c-38 37 -50 38 -70 9 -13 -18
-16 -19 -16 -5 0 9 -7 17 -16 17 -16 0 -15 -9 8 -69 l9 -24 28 33 27 33 28
-36 c16 -20 32 -37 37 -37 5 0 17 16 26 35 9 19 20 35 25 35 4 0 17 -13 30
-30 25 -35 48 -39 55 -10 7 25 21 26 39 3 12 -16 15 -16 24 -3 13 20 13 110 0
110 -5 0 -10 -16 -10 -35z"/>
<path d="M5682 2818 c-19 -19 -15 -66 6 -77 14 -7 25 -6 40 5 28 19 28 49 0
68 -27 19 -31 19 -46 4z m18 -30 c0 -16 -3 -19 -11 -11 -6 6 -8 16 -5 22 11
17 16 13 16 -11z"/>
<path d="M5420 2805 c-16 -19 -3 -55 20 -55 30 0 52 28 40 51 -13 23 -43 25
-60 4z m24 -20 c-4 -8 -8 -15 -10 -15 -2 0 -4 7 -4 15 0 8 4 15 10 15 5 0 7
-7 4 -15z"/>
<path d="M5465 2710 c-11 -17 -8 -115 4 -137 15 -28 32 -29 56 -3 14 16 31 20
82 20 34 0 63 3 63 8 1 4 5 27 9 51 14 70 12 71 -104 71 -57 0 -106 -4 -110
-10z m80 -52 c-12 -54 -24 -78 -41 -85 -22 -8 -34 14 -34 63 0 49 4 54 47 54
34 0 34 -1 28 -32z"/>
<path d="M1810 2847 c-17 -9 -26 -22 -28 -45 -3 -30 -2 -32 31 -32 41 0 60 19
55 57 -3 32 -22 38 -58 20z m40 -37 c0 -5 -7 -10 -15 -10 -8 0 -15 5 -15 10 0
6 7 10 15 10 8 0 15 -4 15 -10z"/>
<path d="M1457 2752 c-22 -25 -21 -49 2 -62 29 -15 56 -12 74 8 24 27 21 51
-9 62 -36 14 -49 13 -67 -8z"/>
<path d="M4638 2469 c-22 -13 -24 -72 -3 -92 37 -38 88 18 64 69 -16 32 -35
39 -61 23z"/>
<path d="M3980 2375 c-12 -14 -8 -48 7 -71 16 -23 49 -25 76 -3 38 29 36 64
-2 40 -20 -13 -51 5 -51 29 0 24 -13 26 -30 5z"/>
<path d="M4257 2373 c-16 -16 -6 -62 18 -81 46 -36 105 -2 91 54 -7 27 -21 31
-30 9 -8 -21 -42 -19 -59 5 -8 11 -17 17 -20 13z"/>
<path d="M4325 2173 c-14 -15 -25 -31 -25 -35 0 -3 -21 -16 -46 -28 -38 -19
-55 -21 -102 -16 -67 8 -134 38 -161 72 -10 13 -24 24 -30 24 -25 0 -8 -31 38
-72 47 -41 50 -47 61 -113 13 -83 39 -132 87 -165 32 -22 37 -23 62 -9 38 22
54 63 59 156 l4 82 49 50 c46 47 62 81 39 81 -5 0 -21 -12 -35 -27z m-116
-214 c18 -6 31 -18 31 -27 0 -24 -37 -82 -53 -82 -21 0 -56 30 -73 62 -15 30
-15 32 2 45 22 16 51 17 93 2z"/>
<path d="M2948 2361 c-29 -26 -31 -31 -20 -55 13 -29 57 -44 81 -29 23 14 26
71 5 94 -23 25 -28 24 -66 -10z"/>
<path d="M3443 2184 c-12 -13 -23 -28 -23 -34 0 -17 47 -60 65 -60 22 0 65 45
65 68 0 44 -71 62 -107 26z"/>
<path d="M1311 2311 c-30 -30 -27 -76 5 -97 37 -25 95 -9 108 29 22 61 -67
114 -113 68z m35 -46 c-1 -36 -12 -41 -30 -13 -7 12 -6 21 3 32 20 24 28 19
27 -19z"/>
<path d="M775 2268 c-27 -14 -45 -38 -45 -58 0 -30 46 -70 80 -70 63 0 93 75
47 118 -26 24 -51 27 -82 10z m18 -48 c-3 -13 1 -22 12 -26 13 -5 14 -9 4 -15
-22 -13 -51 19 -38 42 13 25 29 24 22 -1z"/>
<path d="M1110 2214 c-156 -18 -177 -23 -183 -37 -7 -18 18 -170 32 -196 20
-36 70 -55 146 -55 132 0 167 42 161 194 -3 85 -13 113 -36 109 -3 -1 -57 -7
-120 -15z m64 -126 c38 -17 58 -52 46 -82 -24 -65 -151 -76 -208 -19 -21 21
-7 57 35 86 41 28 87 34 127 15z"/>
<path d="M2130 2048 c-37 -14 -73 -40 -111 -77 -64 -65 -78 -97 -45 -107 11
-3 39 -14 62 -25 112 -53 260 -39 387 36 24 14 52 34 62 45 16 18 16 21 2 44
-62 94 -228 133 -357 84z m174 -14 c17 -7 21 -50 7 -72 -11 -18 -41 -12 -54 9
-8 13 -6 24 6 43 19 29 19 29 41 20z m118 -53 c40 -36 34 -54 -32 -90 -39 -22
-43 -23 -34 -5 5 10 9 43 9 72 0 61 10 65 57 23z m-282 -86 c8 -10 29 -26 45
-37 l30 -18 -55 0 c-40 0 -69 7 -107 27 -50 25 -52 28 -40 47 8 12 34 36 58
55 l44 34 5 -45 c3 -25 12 -54 20 -63z"/>
<path d="M2435 1820 c-9 -15 -80 -50 -144 -73 -55 -18 -128 -19 -208 -2 -54
12 -39 -13 19 -30 65 -19 105 -19 180 1 56 14 62 14 85 -3 14 -10 32 -22 40
-28 23 -17 51 35 65 120 3 21 -26 34 -37 15z m-5 -57 c-1 -21 -19 -35 -36 -29
-18 7 -18 8 0 22 22 15 36 18 36 7z"/>
<path d="M4075 1554 c-26 -26 -16 -76 18 -87 37 -12 57 5 57 49 0 48 -43 70
-75 38z"/>
<path d="M4260 1285 c-13 -33 -4 -51 31 -65 25 -11 32 -10 49 5 26 24 25 50
-2 69 -34 24 -67 20 -78 -9z"/>
<path d="M3937 1252 c-36 -39 -10 -112 39 -112 25 0 38 10 53 37 16 31 14 50
-9 73 -25 25 -62 26 -83 2z"/>
<path d="M5332 1108 c-35 -35 5 -106 52 -94 31 8 51 58 33 87 -13 22 -66 26
-85 7z m53 -60 c6 -4 2 -8 -7 -8 -10 0 -18 7 -18 17 0 9 3 12 8 7 4 -5 12 -12
17 -16z"/>
<path d="M4836 1084 c-24 -23 -21 -81 4 -94 28 -15 59 -3 71 27 13 34 12 40
-11 63 -24 24 -43 25 -64 4z m39 -54 c3 -5 -1 -10 -9 -10 -9 0 -16 5 -16 10 0
6 4 10 9 10 6 0 13 -4 16 -10z"/>
<path d="M4076 948 c-23 -32 -20 -54 10 -77 34 -26 70 -27 84 -1 11 20 4 66
-13 88 -16 20 -64 14 -81 -10z"/>
<path d="M2753 694 c-88 -42 -107 -71 -101 -151 8 -93 79 -140 195 -131 59 5
85 23 114 80 23 45 24 91 4 149 -35 99 -90 113 -212 53z m164 -32 c28 -42 39
-112 23 -143 -7 -13 -24 -36 -38 -51 -22 -24 -34 -28 -81 -28 -86 0 -140 45
-141 116 0 16 7 39 16 50 15 19 15 18 11 -4 -15 -66 109 -91 133 -26 11 27
-10 94 -29 94 -23 0 -9 19 17 23 50 8 66 2 89 -31z m-132 -42 c3 -5 1 -10 -4
-10 -6 0 -11 5 -11 10 0 6 2 10 4 10 3 0 8 -4 11 -10z m-15 -30 c0 -5 -4 -10
-9 -10 -6 0 -13 5 -16 10 -3 6 1 10 9 10 9 0 16 -4 16 -10z"/>
<path d="M2263 670 c-17 -10 -37 -29 -44 -42 -31 -58 5 -174 63 -204 37 -19
103 -18 134 3 33 21 64 83 64 126 0 100 -130 170 -217 117z m90 -16 c3 -4 0
-16 -8 -28 -20 -27 -19 -55 2 -78 18 -20 63 -24 81 -6 9 9 12 6 12 -14 0 -15
-12 -39 -29 -57 -41 -43 -98 -44 -134 -1 -50 59 -47 138 6 171 33 19 59 24 70
13z m57 -54 c0 -5 -2 -10 -4 -10 -3 0 -8 5 -11 10 -3 6 -1 10 4 10 6 0 11 -4
11 -10z"/>
<path d="M2515 452 c-35 -53 -46 -140 -20 -158 29 -21 42 -17 54 16 12 37 33
38 55 5 21 -32 53 -32 68 0 21 47 -61 175 -113 175 -11 0 -30 -17 -44 -38z"/>
<path d="M1734 7975 c-9 -35 12 -57 50 -53 28 3 31 6 31 38 0 33 -2 35 -37 38
-33 3 -38 0 -44 -23z"/>
<path d="M1940 7985 c0 -23 46 -41 65 -25 28 23 18 40 -25 40 -29 0 -40 -4
-40 -15z"/>
<path d="M5493 7989 c-35 -10 -83 -61 -83 -88 0 -33 20 -76 42 -90 34 -21 107
-16 134 10 26 24 40 75 29 108 -6 19 -71 72 -85 70 -3 0 -19 -5 -37 -10z m81
-38 c25 -26 26 -31 15 -57 -20 -46 -40 -64 -71 -64 -81 0 -91 122 -11 143 34
9 39 7 67 -22z"/>
<path d="M5494 7915 c-9 -23 3 -45 25 -45 25 0 34 14 26 40 -7 23 -43 27 -51
5z"/>
<path d="M5764 7956 c-36 -16 -44 -32 -44 -87 0 -64 51 -99 125 -85 44 9 75
51 75 103 0 22 -6 47 -13 57 -18 24 -101 31 -143 12z m59 -46 c-25 -10 -32
-55 -10 -63 6 -2 9 -8 5 -12 -9 -9 -48 23 -48 38 0 19 33 47 54 46 20 0 20 -1
-1 -9z"/>
<path d="M3265 7928 c-21 -52 17 -94 64 -68 56 29 41 100 -20 100 -24 0 -32
-6 -44 -32z"/>
<path d="M2040 7926 c0 -13 -4 -27 -9 -30 -5 -3 -69 -13 -142 -21 -96 -10
-135 -11 -140 -3 -11 17 -28 0 -22 -22 3 -13 14 -20 28 -20 18 0 25 -8 34 -43
12 -48 45 -97 66 -97 8 0 23 13 34 28 20 29 76 52 126 52 27 0 28 0 21 51 -6
46 -5 51 14 56 17 4 20 12 18 36 -4 38 -28 49 -28 13z m-158 -130 c-2 -51 -17
-80 -34 -70 -15 10 -49 96 -43 111 3 10 17 13 42 11 l38 -3 -3 -49z"/>
<path d="M4387 7913 c-15 -18 -21 -36 -18 -60 0 -7 15 -20 32 -28 28 -15 33
-15 55 0 31 20 34 79 5 95 -29 15 -56 12 -74 -7z m53 -43 c0 -5 -4 -10 -10
-10 -5 0 -10 5 -10 10 0 6 5 10 10 10 6 0 10 -4 10 -10z"/>
<path d="M4817 7923 c-4 -3 -7 -21 -7 -40 0 -27 5 -35 26 -43 49 -19 87 27 57
69 -14 20 -62 29 -76 14z"/>
<path d="M4537 7793 c-3 -5 -13 -56 -23 -114 -9 -57 -21 -112 -26 -123 -13
-24 0 -32 61 -41 25 -3 83 -13 129 -22 52 -10 87 -12 93 -6 5 5 15 65 23 133
14 128 9 157 -22 145 -7 -3 -39 1 -70 9 -82 21 -158 30 -165 19z m142 -39 c76
-19 84 -24 75 -48 -5 -12 -13 -16 -28 -11 -11 3 -50 11 -86 17 -67 12 -82 21
-73 45 7 17 32 17 112 -3z"/>
<path d="M404 7139 c-33 -9 -61 -35 -50 -46 3 -3 30 -8 60 -11 48 -4 55 -2 66
17 9 17 9 26 -1 37 -13 16 -29 16 -75 3z m59 -23 c4 -16 -53 -29 -76 -18 -22
10 -22 10 3 21 29 12 70 10 73 -3z"/>
<path d="M100 7122 c-32 -26 -17 -42 39 -42 50 0 71 12 71 42 0 25 -79 25
-110 0z m90 -6 c0 -8 -14 -16 -32 -19 -42 -6 -56 2 -33 20 25 17 65 17 65 -1z"/>
<path d="M5845 7067 c-94 -94 -24 -225 103 -191 17 5 22 14 22 37 l0 30 -23
-21 c-30 -28 -68 -28 -95 1 -26 27 -28 66 -7 106 17 34 68 55 95 41 25 -13 30
-13 30 4 0 14 -29 26 -68 26 -14 0 -38 -14 -57 -33z"/>
<path d="M5886 7044 c-35 -34 -14 -77 35 -72 29 3 34 7 37 31 6 50 -38 75 -72
41z"/>
<path d="M102 7028 c-35 -35 18 -98 83 -98 36 0 52 37 34 76 -12 25 -21 29
-59 32 -26 2 -50 -2 -58 -10z"/>
<path d="M390 7020 c-24 -24 -26 -53 -5 -70 37 -30 126 30 104 71 -14 26 -72
26 -99 -1z"/>
<path d="M5582 7017 c-40 -28 -62 -76 -62 -133 0 -89 50 -139 131 -132 46 5
47 4 34 -16 -8 -12 -17 -39 -21 -62 -21 -133 147 -184 240 -74 29 35 33 78 15
144 -16 58 -54 88 -105 84 l-42 -3 5 56 c9 93 -28 141 -118 152 -37 5 -51 2
-77 -16z m151 -38 c21 -27 23 -99 2 -139 -30 -59 -109 -77 -150 -36 -38 38
-43 91 -14 145 13 25 34 51 47 57 31 15 92 1 115 -27z m143 -200 c14 -16 19
-36 19 -84 0 -56 -3 -67 -28 -93 -35 -37 -72 -45 -114 -25 -44 20 -66 70 -52
114 14 41 56 99 72 99 8 0 8 -3 -1 -12 -7 -7 -12 -24 -12 -38 0 -32 17 -50 47
-50 48 0 84 77 46 99 -10 6 -13 11 -7 11 6 0 19 -9 30 -21z"/>
<path d="M5652 6984 c-29 -20 -28 -50 2 -69 34 -22 76 -11 76 21 0 23 -31 64
-48 64 -4 0 -18 -7 -30 -16z"/>
<path d="M5442 6398 c-16 -16 -15 -70 1 -92 19 -25 68 -18 83 13 13 26 3 69
-19 83 -18 12 -52 9 -65 -4z m56 -51 c2 -12 -3 -17 -17 -17 -12 0 -21 6 -21
13 0 31 32 34 38 4z"/>
<path d="M5172 6248 c-22 -22 -15 -76 13 -94 34 -22 58 -14 69 23 16 58 -43
110 -82 71z m58 -38 c0 -11 -7 -20 -15 -20 -8 0 -15 9 -15 20 0 11 7 20 15 20
8 0 15 -9 15 -20z"/>
<path d="M290 5993 c-44 -16 -52 -65 -15 -89 39 -26 75 -6 75 40 0 25 -6 38
-19 46 -11 5 -21 10 -23 9 -2 0 -10 -3 -18 -6z m15 -53 c3 -5 1 -10 -4 -10 -6
0 -11 5 -11 10 0 6 2 10 4 10 3 0 8 -4 11 -10z"/>
<path d="M0 5895 c0 -8 8 -15 17 -15 12 0 114 -50 131 -65 2 -2 -17 -52 -24
-63 -2 -2 -28 5 -59 17 -31 12 -58 21 -60 21 -3 0 -5 -45 -5 -101 l0 -100 30
18 c46 27 95 82 125 140 39 76 34 88 -60 128 -91 40 -95 41 -95 20z"/>
<path d="M5565 5625 c-60 -8 -111 -14 -112 -14 -2 -1 -3 -5 -3 -10 0 -5 66 -8
148 -7 139 1 150 0 196 -24 84 -42 87 -73 10 -117 -34 -20 -53 -22 -161 -23
-124 0 -162 -12 -77 -24 26 -3 87 -6 137 -6 79 0 96 3 134 25 23 14 50 39 59
56 14 28 14 33 -3 62 -24 41 -104 84 -168 91 -28 2 -99 -2 -160 -9z"/>
<path d="M144 4890 c-28 -11 -37 -26 -29 -50 11 -35 69 -43 93 -12 19 25 14
48 -13 60 -14 7 -27 12 -28 11 -1 0 -12 -4 -23 -9z m6 -40 c0 -5 -2 -10 -4
-10 -3 0 -8 5 -11 10 -3 6 -1 10 4 10 6 0 11 -4 11 -10z"/>
<path d="M0 4673 l0 -49 43 -12 c32 -9 46 -19 58 -44 9 -18 28 -40 43 -48 25
-14 28 -14 46 8 11 14 21 47 26 89 6 62 5 68 -16 85 -17 14 -31 17 -59 11 -45
-9 -57 -8 -103 1 l-38 7 0 -48z m180 2 c14 -17 7 -112 -9 -128 -24 -24 -61 48
-61 116 0 23 4 27 29 27 16 0 34 -7 41 -15z"/>
<path d="M76 3991 c-23 -26 -17 -63 13 -78 49 -24 93 37 56 77 -23 25 -47 25
-69 1z m44 -42 c0 -5 -4 -9 -10 -9 -5 0 -10 7 -10 16 0 8 5 12 10 9 6 -3 10
-10 10 -16z"/>
<path d="M305 3863 c29 -71 23 -100 -17 -90 l-25 7 25 -50 c13 -27 22 -56 18
-65 -6 -18 -48 -20 -78 -4 -19 10 -20 9 -14 -17 19 -87 19 -92 -3 -104 -17 -9
-28 -8 -52 4 -31 15 -31 15 -25 -7 4 -12 9 -45 13 -73 8 -70 -9 -79 -54 -28
l-34 39 6 -30 c12 -56 60 -129 101 -152 48 -28 116 -30 164 -5 77 41 90 201
31 392 -6 19 -11 57 -11 85 0 32 -7 62 -20 83 -21 34 -37 44 -25 15z m59 -444
c-2 -62 -13 -89 -47 -109 -33 -21 -92 -26 -116 -11 -12 8 -12 16 4 56 13 36
28 54 64 76 27 18 56 29 71 27 22 -3 25 -8 24 -39z"/>
<path d="M5725 3725 c-5 -2 -22 -6 -37 -9 -47 -11 -79 -111 -46 -144 15 -15
78 -15 98 1 28 21 50 61 50 88 0 32 -40 71 -65 64z m22 -72 c5 -15 -32 -53
-52 -53 -19 0 -19 20 1 48 16 24 44 26 51 5z"/>
<path d="M0 3656 c0 -13 6 -27 13 -29 9 -4 9 -8 -1 -15 -8 -5 -12 -17 -10 -25
2 -14 7 -15 28 -4 30 15 38 58 15 81 -24 24 -45 20 -45 -8z"/>
<path d="M188 3046 c-109 -55 -144 -101 -154 -203 -5 -50 -3 -63 18 -93 13
-19 39 -45 58 -58 35 -23 35 -24 41 -116 6 -103 13 -124 35 -105 8 7 14 30 14
59 0 26 3 62 6 79 12 59 24 31 24 -58 0 -55 4 -92 11 -97 17 -10 26 13 34 85
10 95 19 98 25 7 8 -128 41 -102 56 44 8 75 16 90 53 90 66 0 123 133 99 230
-27 108 -84 152 -203 157 -58 2 -78 -1 -117 -21z m44 -171 c32 -22 58 -19 90
11 l27 27 12 -26 c9 -21 9 -30 -1 -42 -26 -31 -144 -12 -192 32 -23 21 -23 24
4 53 l22 24 8 -32 c5 -17 18 -38 30 -47z m53 45 c0 -7 -6 -15 -12 -17 -8 -3
-13 4 -13 17 0 13 5 20 13 18 6 -3 12 -11 12 -18z"/>
<path d="M104 2051 c-68 -25 -104 -49 -104 -72 0 -26 22 -24 50 6 28 30 105
55 169 55 84 0 152 -62 292 -267 124 -183 135 -224 83 -331 -47 -97 -244 -248
-369 -283 -63 -18 -152 -13 -185 11 -34 25 -40 25 -40 3 0 -23 52 -52 104 -59
57 -8 202 34 276 79 149 90 264 227 285 338 5 28 0 47 -27 99 -80 153 -248
382 -306 417 -47 29 -153 31 -228 4z"/>
<path d="M187 1952 c-10 -10 -17 -27 -17 -38 0 -34 47 -122 91 -168 35 -39 47
-46 80 -46 63 0 63 44 2 154 -58 104 -117 141 -156 98z"/>
<path d="M5772 1828 c-7 -7 -12 -25 -12 -41 0 -23 7 -31 34 -42 42 -18 64 -11
72 21 9 35 -20 74 -54 74 -16 0 -33 -5 -40 -12z m56 -27 c3 -8 -1 -12 -9 -9
-7 2 -15 10 -17 17 -3 8 1 12 9 9 7 -2 15 -10 17 -17z"/>
<path d="M5392 1728 c-32 -41 -19 -102 21 -96 27 4 51 51 43 84 -7 27 -46 34
-64 12z m38 -32 c0 -17 -14 -29 -23 -20 -8 8 3 34 14 34 5 0 9 -6 9 -14z"/>
<path d="M410 1663 c0 -63 -96 -157 -192 -188 -29 -10 -65 -24 -80 -31 -15 -8
-45 -15 -68 -16 -43 -1 -49 -11 -24 -46 21 -30 75 -29 157 2 138 52 218 111
252 186 18 40 18 41 -3 78 -26 46 -42 52 -42 15z"/>
<path d="M5685 1663 c-11 -2 -50 -13 -87 -24 l-68 -20 0 -52 c1 -76 29 -132
75 -147 41 -14 131 -6 155 13 21 17 40 62 40 97 0 16 -9 54 -21 85 -21 58 -30
62 -94 48z m77 -111 c26 -26 16 -76 -19 -99 -54 -36 -163 -11 -163 36 0 26 38
81 62 90 31 11 97 -3 120 -27z"/>
<path d="M1 1530 c0 -51 1 -53 14 -36 8 11 15 27 15 36 0 9 -7 25 -15 36 -13
17 -14 15 -14 -36z"/>
<path d="M3284 1294 c-25 -38 -9 -78 33 -82 42 -4 73 13 73 41 0 63 -73 92
-106 41z m56 -38 c0 -3 -4 -8 -10 -11 -5 -3 -10 -1 -10 4 0 6 5 11 10 11 6 0
10 -2 10 -4z"/>
<path d="M5918 1245 c-63 -94 -135 -251 -143 -311 -6 -42 -3 -53 16 -78 21
-26 26 -28 73 -23 65 7 106 25 106 48 0 17 -4 16 -52 -6 -64 -30 -80 -31 -103
-5 -14 15 -16 29 -11 62 9 56 77 206 127 280 24 35 39 68 37 81 -2 18 -12 10
-50 -48z"/>
<path d="M2765 1265 c-30 -29 -32 -56 -7 -78 24 -22 55 -21 75 1 23 25 21 57
-5 82 -28 26 -34 25 -63 -5z m40 -35 c3 -5 1 -10 -4 -10 -6 0 -11 5 -11 10 0
6 2 10 4 10 3 0 8 -4 11 -10z"/>
<path d="M596 1185 c4 -8 10 -15 15 -15 4 0 6 7 3 15 -4 8 -10 15 -15 15 -4 0
-6 -7 -3 -15z"/>
<path d="M1806 1149 c-32 -25 -34 -62 -4 -83 70 -49 156 26 98 84 -26 26 -60
25 -94 -1z m69 -39 c0 -18 -6 -26 -23 -28 -27 -4 -40 22 -22 44 19 22 45 13
45 -16z"/>
<path d="M540 1125 c7 -9 15 -13 17 -11 7 7 -7 26 -19 26 -6 0 -6 -6 2 -15z"/>
<path d="M1016 1105 c-26 -27 -29 -56 -9 -84 36 -48 115 -33 129 25 14 54 -79
100 -120 59z m79 -44 c0 -28 -25 -47 -49 -38 -21 8 -21 31 0 52 23 22 49 15
49 -14z"/>
<path d="M3709 1110 c-72 -21 -99 -60 -99 -140 0 -100 47 -160 130 -168 42 -4
56 0 89 21 36 24 40 32 46 80 10 77 -11 142 -55 177 -40 32 -74 41 -111 30z
m88 -40 c1 0 12 -17 24 -37 17 -28 23 -51 23 -101 0 -56 -3 -66 -25 -83 -15
-11 -41 -19 -67 -19 -76 0 -122 70 -108 165 10 64 62 101 121 84 16 -5 31 -9
32 -9z"/>
<path d="M3710 1000 c-41 -41 -12 -122 44 -122 38 0 70 33 63 64 -9 36 -46 78
-68 78 -10 0 -28 -9 -39 -20z"/>
<path d="M680 1092 c0 -5 7 -15 15 -22 8 -7 15 -8 15 -2 0 5 -7 15 -15 22 -8
7 -15 8 -15 2z"/>
<path d="M400 1072 c0 -5 7 -16 16 -23 14 -12 16 -11 13 5 -4 20 -29 35 -29
18z"/>
<path d="M62 1020 c7 -11 16 -20 21 -20 4 0 3 9 -3 20 -6 11 -15 20 -20 20 -6
0 -5 -9 2 -20z"/>
<path d="M320 1028 c0 -9 5 -20 11 -23 17 -11 20 0 4 21 -13 17 -14 17 -15 2z"/>
<path d="M590 1029 c0 -16 27 -46 35 -38 2 2 -5 15 -15 29 -15 19 -20 21 -20
9z"/>
<path d="M222 978 c2 -6 10 -14 16 -16 7 -2 10 2 6 12 -7 18 -28 22 -22 4z"/>
<path d="M500 967 c0 -8 10 -22 21 -33 l22 -19 -17 33 c-18 34 -26 40 -26 19z"/>
<path d="M780 972 c0 -5 9 -17 20 -27 22 -20 26 -14 10 16 -11 19 -30 26 -30
11z"/>
<path d="M140 964 c0 -5 7 -19 15 -30 8 -10 15 -14 15 -8 0 5 -7 19 -15 30 -8
10 -15 14 -15 8z"/>
<path d="M1132 948 c-19 -7 -49 -31 -70 -56 l-37 -45 0 -191 c0 -247 9 -267
135 -297 92 -21 687 -12 732 12 34 18 56 86 66 204 18 228 -4 301 -108 353
l-55 27 -315 2 c-203 1 -327 -2 -348 -9z m692 -42 c29 -14 61 -35 70 -45 17
-19 17 -23 -4 -87 -25 -74 -31 -72 -50 19 -6 31 -15 57 -19 57 -4 0 -14 -26
-21 -57 -7 -32 -15 -62 -18 -66 -2 -5 -18 15 -36 44 -17 29 -37 54 -43 56 -7
3 -23 -16 -35 -41 -12 -25 -25 -46 -28 -46 -3 0 -11 15 -18 33 -7 17 -21 43
-31 57 l-19 24 -11 -24 c-5 -14 -16 -47 -24 -75 l-14 -50 -30 65 c-37 80 -57
100 -72 71 -6 -11 -11 -32 -12 -48 0 -15 -4 -37 -8 -48 -7 -17 -11 -13 -34 26
-33 56 -62 83 -80 76 -7 -3 -22 -32 -32 -66 -10 -34 -21 -61 -25 -61 -4 0 -21
32 -38 70 -17 39 -36 70 -41 70 -6 0 -25 -28 -42 -62 -27 -53 -33 -60 -40 -43
-23 60 3 128 60 153 32 14 84 17 340 20 l303 3 52 -25z m-368 -425 c8 -51 14
-43 39 52 9 37 21 67 27 67 5 0 23 -31 40 -70 17 -38 34 -70 38 -70 4 0 18 27
30 60 12 33 27 63 32 66 9 6 56 -92 65 -137 4 -24 2 -28 -26 -34 -18 -4 -54
-4 -80 0 -29 4 -51 3 -55 -3 -7 -12 -388 -7 -431 6 -27 8 -30 12 -27 45 3 39
48 147 62 147 10 0 26 -40 41 -102 6 -27 15 -48 19 -48 5 0 14 17 20 38 15 48
42 102 52 102 4 0 15 -25 23 -55 17 -58 28 -63 40 -18 3 15 13 43 22 62 l15
36 23 -50 c13 -27 27 -70 31 -94z m400 61 c9 -31 20 -67 25 -80 8 -20 5 -25
-25 -37 -62 -26 -82 -3 -66 73 17 75 31 113 40 107 5 -3 17 -31 26 -63z"/>
<path d="M66 905 c9 -14 19 -24 21 -21 7 7 -16 46 -28 46 -5 0 -2 -11 7 -25z"/>
<path d="M410 927 c0 -5 9 -20 20 -34 11 -14 20 -21 20 -15 0 12 -39 60 -40
49z"/>
<path d="M700 903 c0 -5 9 -18 20 -28 11 -10 20 -14 20 -8 0 5 -9 18 -20 28
-11 10 -20 14 -20 8z"/>
<path d="M330 882 c0 -5 10 -17 21 -28 22 -19 22 -19 10 3 -12 24 -31 39 -31
25z"/>
<path d="M628 854 c-4 -3 2 -15 12 -27 26 -27 34 -18 11 11 -9 13 -20 20 -23
16z"/>
<path d="M230 833 c0 -5 9 -18 20 -28 11 -10 20 -14 20 -8 0 5 -9 18 -20 28
-11 10 -20 14 -20 8z"/>
<path d="M1 803 c-1 -17 3 -33 8 -35 5 -1 25 -23 46 -47 l37 -45 -7 -255 c-4
-141 -10 -293 -14 -338 -6 -74 -5 -83 10 -83 14 0 19 14 26 63 9 72 -5 68 158
45 62 -9 100 -18 101 -26 1 -7 2 -28 3 -47 1 -25 6 -35 17 -35 13 0 15 16 12
115 -2 63 -1 115 2 115 3 0 14 -15 24 -33 54 -93 128 -197 142 -197 11 0 9 11
-12 52 -15 29 -34 63 -44 78 -46 67 -109 171 -140 230 -43 85 -103 174 -155
230 -52 55 -139 155 -182 206 l-32 39 0 -32z m254 -359 c26 -7 95 -117 95
-151 l0 -26 -87 7 c-88 7 -149 30 -147 54 1 7 2 37 3 67 l1 55 58 0 c31 0 66
-3 77 -6z"/>
<path d="M5311 811 c-6 -11 -37 -34 -68 -53 -52 -30 -66 -33 -137 -33 -55 0
-81 4 -83 13 -3 6 -9 12 -15 12 -6 0 -33 16 -59 35 -50 36 -60 35 -34 -2 34
-49 92 -83 152 -91 53 -6 59 -10 68 -37 27 -80 99 -135 178 -135 38 0 49 5 67
28 19 23 21 35 16 82 -4 30 -18 79 -31 109 -14 29 -25 59 -25 67 0 22 -18 26
-29 5z m40 -95 c37 -83 17 -166 -41 -166 -66 0 -140 68 -140 128 0 42 63 44
80 2 14 -33 37 -56 47 -47 3 4 -2 25 -12 47 -18 39 -18 39 6 64 28 29 35 26
60 -28z"/>
<path d="M550 815 c0 -13 24 -55 32 -55 5 0 2 14 -7 30 -14 27 -25 38 -25 25z"/>
<path d="M140 792 c0 -12 30 -52 40 -52 5 0 1 13 -8 30 -16 28 -32 39 -32 22z"/>
<path d="M810 771 c0 -5 7 -12 16 -15 24 -9 28 -7 14 9 -14 17 -30 20 -30 6z"/>
<path d="M472 730 c12 -16 26 -30 31 -30 4 0 -1 14 -13 30 -12 17 -26 30 -31
30 -5 0 0 -13 13 -30z"/>
<path d="M367 702 c-3 -4 6 -21 19 -37 27 -34 31 -28 9 15 -16 31 -21 35 -28
22z"/>
<path d="M730 692 c0 -5 9 -17 20 -27 22 -20 26 -14 10 16 -11 19 -30 26 -30
11z"/>
<path d="M640 635 c0 -5 11 -23 25 -40 13 -16 24 -25 25 -20 0 6 -11 24 -25
40 -13 17 -24 26 -25 20z"/>
<path d="M282 608 c8 -12 20 -24 27 -26 9 -3 7 5 -4 22 -10 14 -22 26 -27 26
-6 0 -4 -10 4 -22z"/>
<path d="M4127 594 c22 -22 25 -32 20 -72 l-5 -47 19 24 c10 13 19 31 19 41 0
23 -47 80 -65 80 -9 0 -4 -10 12 -26z"/>
<path d="M3878 596 c-38 -28 -46 -109 -14 -135 10 -8 12 1 8 43 -4 45 -1 57
16 74 24 24 16 37 -10 18z"/>
<path d="M550 586 c0 -4 9 -19 20 -33 13 -17 20 -20 20 -11 0 8 -9 23 -20 33
-11 10 -20 15 -20 11z"/>
<path d="M3966 569 c-30 -24 -33 -49 -8 -72 24 -22 55 -21 75 1 19 20 13 60
-11 80 -21 16 -25 16 -56 -9z"/>
<path d="M470 534 c0 -15 37 -61 44 -54 3 3 -6 19 -19 35 -13 17 -24 25 -25
19z"/>
<path d="M810 513 c0 -13 29 -38 35 -31 3 3 -4 13 -15 23 -11 10 -20 13 -20 8z"/>
<path d="M380 469 c0 -9 9 -24 20 -34 26 -23 26 -8 0 25 -14 18 -20 21 -20 9z"/>
<path d="M750 469 c0 -8 7 -23 15 -33 11 -14 15 -16 15 -5 0 8 -7 23 -15 33
-11 14 -15 16 -15 5z"/>
<path d="M650 412 c0 -5 11 -19 25 -32 29 -27 33 -15 6 18 -20 23 -31 28 -31
14z"/>
<path d="M561 365 c0 -5 11 -23 24 -40 14 -16 25 -25 25 -20 0 6 -11 24 -25
40 -13 17 -24 26 -24 20z"/>
<path d="M860 315 c7 -8 17 -15 22 -15 6 0 5 7 -2 15 -7 8 -17 15 -22 15 -6 0
-5 -7 2 -15z"/>
<path d="M477 260 c9 -16 21 -30 25 -30 4 0 -1 13 -10 30 -9 16 -21 30 -25 30
-5 0 0 -13 10 -30z"/>
<path d="M780 271 c0 -9 33 -41 43 -41 4 0 2 9 -5 20 -13 21 -38 35 -38 21z"/>
<path d="M700 213 c0 -5 12 -20 26 -34 24 -21 26 -22 16 -3 -13 25 -42 50 -42
37z"/>
<path d="M580 152 c0 -5 11 -19 25 -32 29 -27 33 -15 6 18 -20 23 -31 28 -31
14z"/>
</g>
</svg>
